    <svg
      id="Layer_1"
      data-name="Layer 1"
      xmlns="http://www.w3.org/2000/svg"
      viewBox="0 0 341.62 341.62"
    >
      <title>Untitled-1</title>
      <rect
        x="15.81"
        y="15.81"
        width="310"
        height="310"
        rx="26.55"
        fill="rgba(102, 102, 102, 0.63)"
      />
      <g id="baskets_Image" data-name="baskets Image">
        <path
          d="M131.49,72.11c3.32,1,.22,7.32-1.49,8.13C129.69,76.73,131.08,74.91,131.49,72.11Z"
          transform="translate(0.56 6.32)"
          fill="#010101"
          fillRule="evenodd"
        />
        <path
          d="M124.83,76.54c1.13,0,1.62,5.49-.74,4.44C124,79.16,124,77.42,124.83,76.54Z"
          transform="translate(0.56 6.32)"
          fill="#010101"
          fillRule="evenodd"
        />
        <path
          d="M181.05,81.72c2.4,1.39-.09,3.38,1.48,5.92-2.31-.17-1.26-3.68-1.48-5.92Z"
          transform="translate(0.56 6.32)"
          fill="#010101"
          fillRule="evenodd"
        />
        <path
          d="M130.74,85.42c2.32.51,1,2,.74,3.7C129.6,89,129.74,86.36,130.74,85.42Z"
          transform="translate(0.56 6.32)"
          fill="#010101"
          fillRule="evenodd"
        />
        <path
          d="M195.1,95.78c1.79,1.9-.28,7.67,2.22,8.87-2,1.53-4.06-6.46-2.22-8.87Z"
          transform="translate(0.56 6.32)"
          fill="#010101"
          fillRule="evenodd"
        />
        <path
          d="M189.18,190.45c.29,2.76-.59,4.34-3,4.44-.33-.66-.65-1.33-1.48-1.48.1-2.37,1.68-3.25,4.44-3Z"
          transform="translate(0.56 6.32)"
          fill="#010101"
          fillRule="evenodd"
        />
        <path
          d="M155.15,194.15c.65,2.38-1.91,1.54-2.21,3-1.09-.64-2.35-1.1-2.22-3A3.62,3.62,0,0,1,155.15,194.15Z"
          transform="translate(0.56 6.32)"
          fill="#010101"
          fillRule="evenodd"
        />
        <path
          d="M235.78,208.2c3.24.08-1.17,3.21,0,5.92-2.19-1.3.43-3.94,0-5.92Z"
          transform="translate(0.56 6.32)"
          fill="#010101"
          fillRule="evenodd"
        />
        <path
          d="M237.26,220c-2.46.51-1.19-1.53-.74-2.22-.18-6.46,1.3-1.51.74,2.22Z"
          transform="translate(0.56 6.32)"
          fill="#010101"
          fillRule="evenodd"
        />
        <path
          d="M235.78,220.78c.86.12.62,1.35.74,2.22-.8,2.05-2.19,12.49-2.22,4.44.33-2.39,1.41-4,1.48-6.66Z"
          transform="translate(0.56 6.32)"
          fill="#010101"
          fillRule="evenodd"
        />
        <path
          d="M186.22,221.52a4.81,4.81,0,0,1,3.7.74c-.53,3.84-.38,4.38-.74,8.87.36-1.46-4.21-6.9-3-9.62Z"
          transform="translate(0.56 6.32)"
          fill="#010101"
          fillRule="evenodd"
        />
        <path
          d="M130,223.74c1.68,2.52,3.48,4.9,3,9.62-2.17-2-2.3-6.1-3-9.62Z"
          transform="translate(0.56 6.32)"
          fill="#010101"
          fillRule="evenodd"
        />
        <path
          d="M127.79,233.35c1.48,1,1.65,3.28,2.21,5.18-2.94.48-2.11-2.81-2.21-5.18Z"
          transform="translate(0.56 6.32)"
          fill="#010101"
          fillRule="evenodd"
        />
        <path
          d="M232.82,236.31c1.62,3.13-.22,9.14-.74,12.58-.57-2.07.08-9.27.74-12.57Z"
          transform="translate(0.56 6.32)"
          fill="#010101"
          fillRule="evenodd"
        />
        <path
          d="M161.81,274c.64,2.8-3.31,2.62-4.44,1.48C157.78,273.76,160.23,272.44,161.81,274Z"
          transform="translate(0.56 6.32)"
          fill="#010101"
          fillRule="evenodd"
        />
        <path
          d="M212.11,271.81c-.32-1.66-3.93,0-4.44-1.48.62-1.1,2.38-1.07,3.7-1.48-.18-1.3-1.28-1.68-3-1.48,2.49-1.2,5.47-1.92,8.13-2.95-2,1.08.6,3.71,1.48,1.48,1.63,1.91-4.8,2.06-5.17,4.43,3.74-.2,4.92-3,8.13-3.69-1.49,1.71.3,1.7,1.48.73,1.45-1.26-3.23-1.73,0-3.69,2.34,2.11,7.93.45,10.36-3.7-.88-1.31-3.65,1.73-5.18,2.22-.75-1.38,4.14-2.71,3-5.18,1.94-1.92.58,1.19,3,.74,1.84-2.4-2.08-2.35.74-4.44-10.35,7.41-27.19,14.73-45.12,17-1.19,1.73,2.17,1.21,2.21,1.48s-4.07,2.9-4.43,4.44a2.92,2.92,0,0,1-.74-5.17c-16.24.45-35.24,1.08-51.78-3-2.44,1.11,1.54,1.82.74,3.7-1.48-.25-2.31.16-2.22,1.48,1.5,1,6.95.87,10.36,0-2.63,4.58-6.46,2.32-11.84,1.48-5.69-.88-12-2.28-17-5.18-1.25-3.64-2.77-10.77,0-14-5.29-18.87-7.48-40.84-14.79-57.69.13-6.79-2.88-10.44-6.66-13.32-1.42-8.58,0-15.46-3-22.19,5.55,3.83,2.87,15.87,11.1,17,1.65-5.11-4.46-8.85-3.7-15.54,2.87,2.07,2.71,7.15,4.44,10.36.62-6.46-2.41-12.87-4.44-19.23-3.22-10-6.37-20.34-10.37-29.57-3.3,3.27,2.46,9,3,13.31C86.22,136.6,86.48,124,79.7,122.42c-2,5,2,10.71,5.18,14.79,0,1.89-.55.9-1.48.74-.35,1.58,1.06,1.41,2.22,1.48,1.06,8.21,4.55,14.76,7.39,22.93-1.52,0-2.89-6.2-3.69-2.22-4.67-10-9.22-29-14.8-40.68C71.91,114,68,108.88,67.87,103.19c-.48-19.41,18.22-28.32,32.54-37,5.84-.32,13.07.74,17.75-.74a31,31,0,0,1,.74-8.88c11.2-3.35,24.33-4.76,37-6.66.74,1,2,1.46,2.22,3,4.23-1.93,13.57,1.24,14.79-3.7,14.38-.44,22.46.82,36.25.74,2,3.15,1.22,9.13,3,12.58,11.1-.23,20.56-2.12,32.54-1.48,2.06.9,3.33,3.22,5.92,5.18,5.6,4.24,15.64,10.54,20,17,3.46,5.18,3.11,21.92-4.44,25.15-2.94,18-10.61,31.3-12.57,50.29-1.07.91-1.12,2.83-2.22,3.7.14,2.81,3.11,2.81,3,5.92-.44,5.73-3.92,8.4-6.66,11.83-2.18,12-4.23,24-6.66,35.51-2.2,10.47-6.2,21.46-5.17,31.8.43,4.42,3.88,7.92.74,12.57-5.06,7.48-23.91,14.61-34.77,17-15.39,3.41-38.14,3.62-55.47,1.48-.33-.66-.65-1.32-1.48-1.48,23.5,1.42,47.18,1.42,67.31-5.16Zm-131.66-159c-3.59-2.39-6.21-6.23-10.36-6.66,2.25,7,5.87,12.91,11.1,16.28,1.65,1.06,5.46,2.49,8.14,3.69,7.31,3.32,14.44,4.28,23.66,5.92,16.32,2.91,34.21,4,49.56,4.44,1.36-1.73-.77-4.71,0-8.14C132.78,130,98.9,125.06,80.45,112.79Zm25.15,9.62c.66-2-3.55-2.84-5.92-3.7a35.22,35.22,0,0,0-8.88-2.22c-1.56-1.89-4.17-2.73-6.65-3.7C88.79,118.5,97.71,119.94,105.6,122.41Zm68.05-70.27c-2.1,6.61.68,16.43.74,22.19.05,5.2-1.12,9.33-.74,11.83.59,3.91,2.23,2.67,2.22,3-2.67,4.93-1.63,16.84-.74,22.93,13.26-1.16,30-2.93,41.42-8.14-3-17-6.45-33.49-8.88-51-10.89.32-24.2-2.26-34-.74ZM115.21,86.9q.21-2.41-2.22-2.22c-12.28.86-22,.5-35.5.74,2.27,5.29,3.28,10.55,5.92,13.32,5.71,6,15,.85,28.1,2.22,1.95-3.48,1.64-9.21,3.7-12.58,2.77,1.51,1.44,8.47,0,10.36-.12-1.11.27-2.73-.74-3-.36,4.82-2.09,8.26-2.22,13.31,5.08,1.09,9.47,2.87,15.54,3,.4-1.07-.87-3.82.74-3.7-.1,1.83-.11,3.57.74,4.44,6.34-.53,15.64,1.72,23.66,0,.47-19,1.61-41.72,1.48-59.91-12.34.47-22.27,3.36-33.28,5.18-.78,7.11-3.75,16-3,22.19,0-.79.35-1.88.74-.74C117.86,82.15,116.08,84.07,115.21,86.9Zm42.16-27.36h14.06V55.1c-4.27-.9-15.67-3-14.06,4.44ZM243.18,64c-6.27-3.48-22,2.78-31.07,0-.65,2.38,2.44,1,2.22,3a2,2,0,0,0-2.22,1.48c4,.9-1,3,3,4.44-.57.17-1.46,0-1.48.74a2,2,0,0,1,1.48,2.22c14.83-1,27-1.08,41.42-1.48-2.64-4.14-8.63-7.75-13.31-10.36Zm-85.81,2.22c-1.8,3.5,1.94,5.29,2.22,8.88.22,1.94-2.87.58-2.22,3,4.61-.08,8.15-1.23,13.32-.74,1.53-2.66.38-8,.74-11.84-6,.43-9.78-.23-14.06.74Zm-74,13.32c11.62.52,21.4-.79,32.54-.74.63-3.57,1-7.37,1.48-11.1C101,66.49,91.63,72.44,83.41,79.51Zm88-.74c-4,.48-9.85-1-12.58.74C161.26,79.51,168.63,81.81,171.43,78.77Zm76.18,17.75c5.27-4.64,13.79-9.82,14.79-16.27-14.08.71-20.8.87-32.54,1.48-.12.87.12,2.1-.74,2.21-.29-1-.89-1.24,0-2.21-5.26.51-11.56-2.81-14.06,2.21.88,1.1,2.8,1.15,3.7,2.22-1.31.17-3.7-.74-3,1.48,1.76-.61,3.41,1,.74.74-.55,2.52,2.73,1.22,3,3-1.93-.21-3.18.27-3,2.22,2.13-.15,3.76.19,4.44,1.48-.7,1.84-3.81-2-3.7,1.48,7.93.77,20.18-.53,30.32,0ZM81.19,82.46c2-.45,5.87.94,6.65-.73C86.65,80.75,81.33,80.13,81.19,82.46Zm17,0c1-.84,10.1-.81,4.44-1.47C95,81,89.72,80.87,98.2,82.46Zm58.43.75c0,4.31,1.78,5.27,0,8.87.87.12,2.1-.13,2.22.74-3.33-.52-2,1.52-.74,2.22-3.75,1.2.31,2-2.22,4.44,4.68-1.48,12.52.19,17-1.48-.26-4.92-1.14-9.21-.73-14.79-5.43-1.13-8.69,1.1-15.54,0Zm-68,0c-2.5.46-6.88-1-8.14.73C82.58,84.76,87.5,85.49,88.59,83.21ZM253.53,96.52c-.78,2.78,3.2,3.37,0,4.44-.75-1-.7-2.76-2.22-3-.22,1.5-1.48,2-2.22,3,4.33-1.13-.59,3.38,3,3.7,6.5-5.42,19.29-8.2,16.27-20.72-4.73,0-2.93,5.36-3,6.66-1.43-.3-.59-2.87-3-2.22-.79,2.77,1.84,2.11,1.48,4.44-4.15-2,1.11,3.52-3,3.7-.6,0-.67-3.43-3.7-2.22,1.09.64,2.35,1.11,2.22,3-2-2-.69,1.08-2.22,1.48-.31-1.42-.27-3.19-2.22-3-.57,1.89,2.9,3.4.74,4.44-.24-1.73-.75-3.19-2.21-3.7ZM80.45,109.83c.63-2.32,2.79-3.12,3-5.92-4.25-3.39-6.17-9.11-10.36-12.57C69.17,99.51,73.7,107.83,80.45,109.83Zm3.69-7.39c-1-4.66-4.83-6.51-6.65-10.36C78.5,96.73,81.68,99.23,84.14,102.44Zm165.68,14.79a40.41,40.41,0,0,1,9.62-5.18c.29-1.27-1.1-1.89,0-2.22,3.43-.76,3.88-4.5,7.39-5.17-2.73-3.33,3.78-4.83,1.48-7.4-1.09,2.9-1.15.14-2.22-.74.2,2.41-2.3,2.14-3,3.7-8.39,4.18-16.55,12.53-26.62,12.57,1.55-1.65,5.42-1,6.66-3a52.74,52.74,0,0,0-21.45,7.4c3.35.85,5.77-3.06,8.13-.74-19.54,5.85-39.42,11.37-64.35,11.83a17.32,17.32,0,0,0,1.48,8.14c23.72-2.72,45.23-4,62.87-11.83-1.3-.43-4.35.89-4.44-.74,4.07-.62,8.92-.46,11.1-3,.11.87-.13,2.1.74,2.22,1.51-1.24,5.45-3.88,7.39-2.22-1.59,2.1-1.84,5.55-3.69,7.39.16-1.38,1.9-4.9,0-5.91-1.61,2.27-1.18,3.23-3.7,1.48-1.53.2-.18,3.27-2.22,3-1.62-2.74-5.56,0-6.66,3-.07-1.16.1-2.56-1.48-2.22s-.69,2.76-2.21,3c-.9-4.34-5.13.46-8.88.74-.88,7.48-.67,11.57-3,17.75.16-6.49,2-11.29,2.22-17.75-3.68,2.73-3.81,9.88-4.44,15.53-1,8.68-1.55,17-2.22,25.89-.27,3.64-2.83,8.53,0,11.1,1.6-.63-.27-4.72,1.48-5.18-.23,2.45-.11,4.55,1.48,5.18-31.37,9.16-73.9,8.38-104.29,1.48,1.11-.13,2.73.26,3-.74-5.84-1.56-10.46-4.34-15.53-6.66-.49,3.45,1.16,4.75,1.47,7.4,5.5,3.5,11.83,7.54,19.24,8.87,1.34.24,1.67-.75,3-.74,3.31,0,6.2,2.3,9.62,3,9.36,1.81,20.19,1,30.33.74,15.22-.4,29.55-.59,42.16-3,1.94-.36,3.91-1.88,5.91-2.22.84-.14,1.51.83,3,.74,6.58-.38,13.07-4.15,18.49-5.91,1.51-.49,3-.18,4.44-.74,4.75-1.88,9-5.36,13.31-6.66,1-1.43.41-4.53,3.7-3.7-1.57-4.31,4.28-5,1.48-8.13a32.1,32.1,0,0,1-3,3.69c-10.71,5.32-21.64,10.41-35.5,12.58,2.51-3.51,4.83-3.37,9.62-3.7.12-1.11-.27-2.73.73-3,.08,1.16-.1,2.57,1.48,2.22,1.79-2.57,4-.79,5.18-4.44v2.22c6.64.07,8.58-3.49,9.62-9.61,1.11-6.57,4.88-15.13,6.65-23.67,2-9.84,4.27-18.2,4.44-25.15-2.09.22-2.88,3.68-4.44,2.22-.51-3,3.12-1.82,3-4.44-1.84-.53-3,3.26-4.44.74,3.17,1.14,3.77-4,5.18-2.22,1.64,1.09-.93,1.83.74,2.24Zm-145,74c-2.16.2-2.27-1.67-4.43-1.48v1.48c4.08,10.81,6.89,23.19,9.61,35.51,1.34,6.07,3.2,12.4,4.44,18.49,1.1,5.45-.37,13.94,5.92,16.27-2.59-26-8.55-48.65-15.54-70.26Zm7.4,3c-.58.17-.86.62-.74,1.48a596.53,596.53,0,0,1,12.57,67.31c6.63,1.58,13.88,6.25,21.45,4.44-2.2-11.9-3.06-26.15-5.17-38.46-1.31-7.57-2.46-19-4.44-20.71.36.31-.24,2.53-.74,2.22.49-2,.31-4.62,1.48-5.92,1.28.45-.06,3.51,1.48,3.7-.14-3.81-.27-7.63-2.22-9.62-.4,1.08.87,3.83-.74,3.7,0-4.9-5.23-4.63-9.61-5.17-.13,1.1.26,2.72-.74,2.95-.51-5.67-8.93-3.42-12.58-5.93Zm122-94.67c2.51-.13,12.92-.73,8.88-1.48-6.72-1.25-21.41,1.69-24.41,1.48,6.62-.21,10.13.28,15.53,0Zm-78.4,2.22c5.25.86,13.25,1.24,17-1.48-5.37.8-14.06-1.73-17,1.48Zm87.28,5.17c1.74-.23,2.77-1.16,5.18-.74.25-6.41-4.48-5.58-8.88-5.91.68,2.76,3.4,3.49,3.7,6.65Zm-156.07-3c5.59-.31,18.75,1.17,24.41-1.47C102.82,102.37,94.15,102.33,87.1,103.91Zm-2.22,6.66c.46-.41,3.55,2.82,6.66,2.22-.4-4.1,2.56-4.83,3.7-7.4C90,106.39,84.78,105.09,84.88,110.57Zm117.6.74c4.52-.17,6.68-2.69,11.84-2.22.29-1.42,3.38-.06,2.21-3-2.23,1.23-10.13,3.17-14.05,5.18Zm-46.59-1.48c1.87-.69,4.19-.54,5.18,1.48h-4.44c.36,2.34-1.33,2.61-.74,5.18,3.91.33,2.31-2,5.92-.74,1.06-3.72.52-3.68.74-7.4C160.15,108.67,156.15,107.38,155.89,109.83ZM165.5,118c-1,2-1.18,7.71-.74,8.87,10.7-2,22.41-.15,29.59-4.43,8.31,1.83,15.93-3.25,24.41-3.7.44-1.16.26-6.82-.74-8.88-16.3,3.92-32.75,7.69-52.52,8.14Zm-42.16-4.44c-3.82-.86-6.79-2.58-11.09-3C114.14,112.88,120.39,114.73,123.34,113.53Zm41.42,2.22c2.08,1.71,5.71.23,8.14,0v-3.7a17,17,0,0,0-6.66-1.48c-.82,1.4-.94,3.5-1.48,5.18Zm91-.74c-6,19.11-9,38.06-14.05,57,3.1-.84,4.79-3.09,7.39-4.43.8-4.9.14-7.6,0-10.36,1,0,.68,1.3,1.48,1.48,1.79-4.18.32-7.42,3-11.1-.9-.08-1.75-.22-1.48-1.47,4.69-9.86,4-25.11,11.1-32.55a2,2,0,0,0-1.48-2.22c-1.89,1.31-2.34,4.07-5.91,3.7Zm-76.19,0c5.71-.7,11.92-.91,16.28-3-5.58.84-13.93-.09-16.27,3Zm-62.86,8.87c4.22.37,10.09,2.59,14.05,1.48,1.84-.51-.46-1.43,1.48-1.48,4.07-.09,8.68,2,10.35,2.22,5.75.74,11.94.11,19.23.74.89-2.38-1.31-4.39,0-8.13-19.38-.9-35.91-1-51-5.18-.23,3.72-2.38,5.51-3,8.88C109.81,125,121,120.87,116.69,123.88ZM128.52,115c-1.32-.29,4.39,1.57,5.92,0C132.65,114.11,124.55,114.15,128.52,115Zm17.75.74c-7.08.92,11.88,1.72,5.18-1.48C150.58,115.61,147.59,114.85,146.27,115.75ZM258.7,127.58c.44-1.87,3.29-8.08,1.48-7.39-.82,1.54-3.26,10.3-1.48,7.39Zm-125,59.91c-.56-7.38-3.66-14.44-5.17-21.44-.82-3.76-.19-8.15-3-11.1-.85,3.35,3.05,5.77.74,8.14-1.31-4.87-4.59-11.68-3-17-.35,2.81.31,4.61,2.22,5.17a65.46,65.46,0,0,0-3.7-15.53c-2.33,1-4.44-1.07-7.4-1.48-1,.46-.11,2.85-1.48,3,.64-2.36-1.16-2.29-1.48-3.7-8.13-.82-11.21-2.13-17.75-4.44,5.47,17.71,10.42,35.93,15.53,54,7,1.61,13.76,3.5,21.45,4.44.07-5.81-5.35-16.29-3.7-23.67,3.16,7.46,1.38,17.31,6.66,23.66Zm60.66-50.29c.09-1.33-.74-1.73-2.23-1.48-3.34,2.1-9.19-.34-12.57,3-1.16-2.63-3.14-.15-5.92-1.48V149c4.78-.59,8.42,4.54,9.62-.74-.18,3,.72,7.13-1.48,8.14-.67-3.77-3.85-5-8.14-5.18.22,12.38-.09,23.31,0,37A219.32,219.32,0,0,0,201,184.54c1.26-17,2.35-34.15,3.7-51-3.62,1.09-9.25.14-10.36,3.71Zm-65.83-.74c2.57,17.89,7.67,33.25,9.61,51.77,9.11.26,19.4-.65,27.37.74,1-10.92-2.87-23.23-3.7-34.76-3.86-.4-1.88,5-5.92,4.44-.51-5,4.35-4.53,5.18-8.14-.65-4.28-1.5-8.36-2.22-12.57-11.86.13-21.64-1.05-30.32-1.48Zm34.76,9.62c1.17-2.29-.6-7-2.22-8.88C160.27,139.12,161.46,144.42,163.29,146.08Zm7.4-1.48c-.83-2.33-.35-2,.74-3.7-3.85,2.61-1.39-3.52-4.44-3.7C166.91,141,166.37,145.21,170.69,144.6Zm75.44,37c-2.88-2.2-3.41,4.61-6.66,2.23-4.52,22.59-12.4,45.78-11.83,71,.32-1.87,3.38-1,5.17-3,1.17-4.5.89-10.45,2.22-14.79-1.46-1.42-3.41-4.19,0-5.18-.22.46-1.84,2.85,0,3,3.16-18.28,6.39-36.5,11.09-53.25Zm-42.9,84.32c2.71-1.72,7.85-1,8.87-4.43,1.89,2.88,7.58-2.61,11.1-3,1.89-25.54,7.64-46.87,11.83-71.75-3.78.9-7.65,1.73-8.88,5.18.21-1.69-.17-2.78-1.47-3-1.22,1.25-1.61,3.32-3,4.44.52-4.29-3.34-1.31-3.7,0-2.25-3-5.77.3-7.4,3,.24-1,1.06-1.41.74-3-3.07,2.39-2.71.75-5.91,1.48,1.35,8.34-2.73,17.18,0,22.19,1.35-1.61-.14-6.06,1.47-7.4-1.47,19.88-3.17,38-3.68,56.21Zm.74-48.07c1.25,2.55-1.16,4.46.74,6.66-.11-.78,2.46-5.88-.74-6.66Zm-29.58-19.23c1.57,24.31.64,46.63,2.22,71,3-1.14,8.67.3,9.61-3,.18,3.61,2.06,1.37,3,0,1.16.32.63,2.33,3,1.48,1.7-1.84,3.39.27,7.4-1.48-.81-22.35,0-47.23,1.47-71-9.38.49-16.68,3.05-26.64,3Zm-25.15,70.26c9,.79,14.73.53,23.66.74-1.05-19.47-2.2-48.83-5.91-70.26-7.31,0-18.52.59-26.63-.74,3.95,24,6.79,44.58,8.87,70.27Zm-9.62-51.77c.1-3.06-.2-5.71-1.48-7.39.05,2.91.36,5.56,1.48,7.4ZM116,221.52c-.79-1.92-.47-5-2.22-5.91-.2,2.91.29,5.14,2.22,5.92Zm15.53,49.55c-2.64-1.69-.18-2.05.74-3.7-2.16,0-5.43,1-7.39,0,.45-1,2.84-.11,3-1.48-4.68-1.23-8.05-3.79-12.58-5.17-1.39,11,9.24,10,15.53,13.31.65-2.37-1.91-1.53-2.21-3,1.37-.7,2.47,2.23,2.95,0Z"
          transform="translate(0.56 6.32)"
          fill="#010101"
          fillRule="evenodd"
        />
        <path
          d="M233.56,118.71c-1.84,1.12-3,2.9-5.92,3,1-1.93,3.82-2.09,5.92-3Z"
          transform="translate(0.56 6.32)"
          fill="#010101"
          fillRule="evenodd"
        />
        <path
          d="M198.8,126.1c-.19.81-1.47.5-1.48,1.48-3-.69-7.72,2-4.44-.74a13.71,13.71,0,0,0,5.92-.74Z"
          transform="translate(0.56 6.32)"
          fill="#010101"
          fillRule="evenodd"
        />
        <path
          d="M90.06,141.63c1-3.29,1.61,5.5,3.7,5.92-.41,6.58,3.54,8.79,3.7,14.79-3.73-5.64-4.72-14-7.4-20.7Z"
          transform="translate(0.56 6.32)"
          fill="#010101"
          fillRule="evenodd"
        />
        <path
          d="M185.48,157.9c2.05-.25-.87,6.23,0,9.62-.35,4.06-1.13-6.69,0-9.62Z"
          transform="translate(0.56 6.32)"
          fill="#010101"
          fillRule="evenodd"
        />
        <path
          d="M221,183.05h4.43c.54,2.27-1.27,2.18-.73,4.44-2.09-.61-1.92,1-3.7.74.47-3.83-1.53-1.1-3.7-1.48-1.86-1.43,5.44.07,3.7-3.7Z"
          transform="translate(0.56 6.32)"
          fill="#010101"
          fillRule="evenodd"
        />
        <path
          d="M120.39,191.93c2.69.72.34-3.6,3.7-2.22-1.86,1.31-.52,1.22-1.48,3-2.33.35-2.89-1-4.44-1.48,1.27-.7,1.21-2.73,3.7-2.22,0,1.47-2,.94-1.48,3Z"
          transform="translate(0.56 6.32)"
          fill="#010101"
          fillRule="evenodd"
        />
      </g>
      <rect
        x="5"
        y="5"
        width="331.62"
        height="331.62"
        rx="26.55"
        fill="none"
        stroke="#010101"
        strokeMiterlimit="10"
        strokeWidth="10"
      />
      <g id="g3">
        <path
          id="path10"
          d="M259.87,310.92l11.77-11.72,5.87-5.84c1.14-1.13,1.37-.06,2.46,1q7.18,7.23,14.38,14.44c1.6,1.61,3.11,3.53,5.53,3.8,3.35.37,5.44-2.43,7.55-4.52,3.43-3.42,13.47-10.26,9.91-16-2.81-4.55-8.15-8.4-11.89-12.15l-6.18-6.21c-1.27-1.28-.94-1.08.35-2.37L314,257.06c1.38-1.38,3.33-2.87,4-4.77,1.25-3.64-1.45-5.95-3.71-8.22-3.32-3.33-9.82-12.89-15.42-11-1.91.65-3.4,2.58-4.79,4l-7.86,7.82-6.51,6.48c-1.29,1.28-1.1,1.62-2.38.34l-14.16-14.22a25.54,25.54,0,0,0-4.12-3.93c-3.58-2.23-6.44.26-8.85,2.66-3.26,3.25-12.34,9.42-11.77,14.71.51,4.79,8.32,10.11,11.4,13.21q3.57,3.57,7.13,7.16c1.29,1.29,1.62,1.1.34,2.37l-14.71,14.64c-1.72,1.71-4,3.41-4.26,6-.37,3.35,2.43,5.44,4.53,7.54,3.52,3.53,11.34,14.79,17,9.11"
          transform="translate(0.56 6.32)"
          fill="#ee2c24"
        />
        <path
          id="path12"
          d="M315.77,251.18c-1.27,1.25-14.51-13.23-15.65-14.93-1.91-2.82,5.89,2.9,6.49,3.45,1,.88,10.74,9.9,9.16,11.48"
          transform="translate(0.56 6.32)"
          fill="#ee2c24"
        />
        <path
          id="path14"
          d="M275.25,255.17c-1.3,1.28-17.94-16.77-19.33-18.56-.66-.85-1.25-2.2.38-1.33,2.84,1.52,5.3,4,7.61,6.19,1,1,12.91,12.14,11.34,13.7"
          transform="translate(0.56 6.32)"
          fill="#ee2c24"
        />
        <path
          id="path16"
          d="M275.17,291.32c-1.29-1.29-18,16.69-19.42,18.47-.66.85-1.25,2.2.39,1.33,2.83-1.5,5.31-4,7.63-6.15,1-1,13-12.08,11.4-13.65"
          transform="translate(0.56 6.32)"
          fill="#ee2c24"
        />
        <path
          id="path18"
          d="M315.77,251.18c1.09,1.09-19.8,21.43-20.67,20.56s18-23.27,20.67-20.56"
          transform="translate(0.56 6.32)"
          fill="#ee2c24"
        />
        <path
          id="path20"
          d="M315.67,294.48c-1.26-1.27-14.56,13.16-15.72,14.85-1.92,2.82,5.92-2.87,6.52-3.41,1-.89,10.78-9.87,9.2-11.44"
          transform="translate(0.56 6.32)"
          fill="#ee2c24"
        />
        <path
          id="path22"
          d="M315.67,294.48c1.09-1.09-19.55-21.37-20.42-20.5s17.72,23.19,20.42,20.5"
          transform="translate(0.56 6.32)"
          fill="#ee2c24"
        />
        <path
          id="path24"
          d="M300.24,310.76c1.1-1.09-11.09-12.36-12.05-13.32-1.8-1.79-3.73-4.17-6-5.37-1.76-.93,1.09,3.28,1.26,3.5,1.41,1.82,14.35,17.64,16.81,15.19"
          transform="translate(0.56 6.32)"
          fill="#ee2c24"
        />
        <path
          id="path26"
          d="M262.05,272.41c.95-.94-10.55-11.81-11.52-12.78a114.21,114.21,0,0,0-8.52-8.24c-1.69-1.39-2.39-1-1.16.94s18.86,22.41,21.2,20.08"
          transform="translate(0.56 6.32)"
          fill="#ee2c24"
        />
        <path
          id="path28"
          d="M300.41,236.19c1.09,1.09-11.15,12.31-12.12,13.27-1.81,1.78-3.74,4.15-6,5.34-1.77.92,1.1-3.27,1.27-3.49,1.41-1.82,14.44-17.59,16.88-15.12"
          transform="translate(0.56 6.32)"
          fill="#ee2c24"
        />
        <path
          id="path30"
          d="M262,274.45c1,1-10.17,11.34-11.1,12.26a112.33,112.33,0,0,1-8.56,8.2c-1.7,1.37-2.38,1-1.15-1s18.45-21.87,20.81-19.5"
          transform="translate(0.56 6.32)"
          fill="#ee2c24"
        />
        <path
          id="path32"
          d="M319,250.45c0-4.37-5.69-8.33-8.46-11.12-3.36-3.37-7.86-9.75-13.29-6.19-3.47,2.27-6.36,6.14-9.26,9l-9.62,9.57-15.51-15.57c-2.52-2.54-5.19-5.35-9.18-3.7-3.09,1.27-5.78,5.08-8.07,7.35s-5.05,4.34-6.8,6.94c-2.6,3.87,0,7.16,2.63,9.84l15.95,16q-7.8,7.74-15.58,15.5c-2.53,2.52-5.34,5.18-3.69,9.18,1.27,3.09,5.07,5.78,7.35,8.06s4.34,5.05,6.94,6.8c3.83,2.58,7.15.05,9.84-2.62l16-15.95,15.51,15.57c2.51,2.52,5.16,5.31,9.14,3.71,3.11-1.25,5.82-5.09,8.1-7.36s5.09-4.36,6.82-7c2.57-3.87,0-7.14-2.64-9.81q-8-8-16-16l10.94-10.89C313,259,319,254.9,319,250.46m-78.45-3.69c4-4,13.41-17.61,19.51-11.49l18.3,18.37L290,242c3.08-3.07,9.34-11.95,14.23-7L316,246.76c4.92,4.94-3.15,10.52-6.34,13.69l-12.3,12.24c-.06.06,10.21,10.32,11,11.08,3.05,3.07,12.7,9.88,7.73,14.82-3.25,4.22-7.85,7.82-11.63,11.58-5.16,5.13-10.51-2.73-13.9-6.14q-6.15-6.15-12.28-12.32c-6.14,6.1-12,13.46-18.84,18.74-4.9,4.88-11.25-4.24-14.3-7.3-3.27-3.29-9-7.47-4.23-12.22l11.87-11.82c1.28-1.27,7.34-5.63,5.8-7.18l-12.19-12.24c-2.94-2.95-10.48-8.32-5.84-12.92"
          transform="translate(0.56 6.32)"
          fill="#ee2c24"
        />
      </g>
    </svg>