<svg id="Layer_1" data-name="Layer 1" xmlns="http://www.w3.org/2000/svg" viewBox="0 0 127.26 123.25"><title>green</title><path d="M52.34,6.61a4.11,4.11,0,0,1-.6.28A20.82,20.82,0,0,1,44.29,8.2C40.61,8,40.91,9.32,38.5,10.94s-10,2.18-11.81,7.71-1.63,10-6.34,12.65S13.67,37.92,12,38.74,4.2,42.07,4.4,46.57,2.09,63.31,5.65,69.47a3.39,3.39,0,0,1,.31.67C6.82,72.67,8.45,79,7.47,82.07a21.81,21.81,0,0,0-.62,11.66c1,4.5,1.63,8.39,12.27,13.09S31,111.33,33,114.6s2.89,2.35,9.4,4.7c.24.08,5.35,5.48,5.6,5.53,7.43,1.29,6.33,2.56,21.46-3.29,2.54-1.17,17.41-2.55,21.15-1.75a5.06,5.06,0,0,0,1.1.1c6.33-.07,21.87-3.28,25-12.7,2.22-4.07,4.61-11.49,4.74-15.75a6.42,6.42,0,0,1,.69-2.68c2-3.9,1.37-7.22,4.16-11.67.94-1.49,2-6.92,1.53-8.61-1.43-5.11-.05-11.46-4.42-14.17a4.38,4.38,0,0,1-1-.82c-4.14-4.75-5.28-9.59-5.09-11.17s.56-9.9-3.32-13S107.75,16.54,101,18.17c-4.34.67-9.84,2.51-13.73-.38S75.51,7.71,71,7.51C66.63,6.29,62.13,4.57,52.34,6.61Z" transform="translate(-2.22 -4.16)" fill="#b62025" stroke="#d12427" stroke-width="3"/><path d="M53.4,9.06a28.85,28.85,0,0,1-7.6,1.78,8.17,8.17,0,0,1-.86,0c-3.34-.2-6.3-.49-8.57,1S31.3,15,29.55,20.23,27,30.36,22.55,32.9s-9.21,7.15-10.77,7.93S5.6,47,5.78,51.26C6,55.34,5.27,63,8.3,68.73a9.83,9.83,0,0,1,.75,1.73c.84,2.71,2.08,8,1.23,10.71a20.74,20.74,0,0,0-.59,11.1c1,4.29,1.56,8,11.7,12.48s11.3,4.28,13.25,7.4,6.2,6.93,12.1,9.28c.52.21,3.88.95,4.43,1,6.68,1.13,5,.76,18.16-3.7,2.37-1.1,15.7-2.37,19.78-1.72a9.06,9.06,0,0,0,1.8.16c6.25-.19,20.5-3.31,23.43-12.08a43.07,43.07,0,0,0,4.49-14.47,10.31,10.31,0,0,1,1.1-3.92c2-4,.6-2.07,3.07-6,.83-1.29,3.69-12.63,3.3-14.12C125,61.8,124.79,57.53,121,55a8.27,8.27,0,0,1-1.86-1.73c-3.41-4.26-4.36-8.43-4.18-9.85s-.58-13.16-4.28-16.08-4.89-8.46-11.31-6.92C95.24,21,90,22.71,86.28,20c-3.45-2.54-5.71-8.37-9.47-9.29a9.7,9.7,0,0,1-3.37-1.52C70,6.68,66.26,7.43,54.53,8.54,54.12,8.58,53.78,8.92,53.4,9.06Z" transform="translate(-2.22 -4.16)" fill="#ed1c24"/><path d="M27.28,50.51c-2.77,8.28,3.37-22.72,38-23.22,19.63-.3,36.36,18.81,37.26,28.63.16,1.66.22-.37-.35.65" transform="translate(-2.22 -4.16)" fill="#ed1c24" stroke="#c12226" stroke-width="3"/><path d="M104.05,63.66c-13.57,43.67-19.14,42.13-41.4,42.13s-36-5.17-37-47.56c-.55-22.21,16-34.8,38.18-34.8S110.65,42.44,104.05,63.66Z" transform="translate(-2.22 -4.16)" fill="none" stroke="#ee2424" stroke-width="2"/><path d="M46.74,56.06l4,1.26a33.66,33.66,0,0,1,6.36,7.34A50.3,50.3,0,0,0,64,73.23c2.57,2.48,5.33,4.75,8,7a79.06,79.06,0,0,1,6,5.27,40.1,40.1,0,0,1,5.33,5.72.75.75,0,0,0,1.05-.1,2.91,2.91,0,0,0,.34-2.09c0-1.62.08-4.59-1.13-5.88A60.63,60.63,0,0,0,76,75.65q-4.12-3.42-8.3-6.78l-4.17-3.54Q59.27,61,55.1,56.58c-2.05-2-4.57-4.37-7.29-5.53a18.94,18.94,0,0,0-5.94-1.4c-1.79-.2.18,2.43.29,2.57C43.22,53.5,45,55.76,46.74,56.06Z" transform="translate(-2.22 -4.16)" fill="#ae2a24" opacity="0.11"/><path d="M42.76,53.38q8.33.55,12,10.12a32,32,0,0,0,5.49,6.58q4.11,3.86,8.49,7.38A76.77,76.77,0,0,1,79.69,88c.58.66,1.39.8,1.78-.17a9.34,9.34,0,0,0,0-2.42A9.13,9.13,0,0,0,81,83c-1.28-1.5-2.62-3-4-4.33q-3.87-3.66-8.06-7c-4-3.29-8.11-6.48-11.59-10.36-2.36-2.64-4.4-5.56-7.06-7.93a19.39,19.39,0,0,0-4.12-2.9,10.91,10.91,0,0,0-4.91-1.25c-.79-.1-1.46.4-1.27,1.26A5.71,5.71,0,0,0,42.76,53.38Z" transform="translate(-2.22 -4.16)" fill="#ae2a24" opacity="0.11"/><path d="M43.47,48.82c4.93.91,7.26,3.51,9.78,7.22a63.29,63.29,0,0,0,5.85,7.88,104,104,0,0,0,9.77,8.86l4.07,3.43a55.41,55.41,0,0,1,7.26,7.51A1.4,1.4,0,0,0,82,83.57a2.46,2.46,0,0,0-.19-2.28,57.32,57.32,0,0,0-7.38-7.56q-4.1-3.45-8.23-6.84A59.37,59.37,0,0,1,56.74,57c-1.91-2.66-3.61-5.57-6.13-7.73A13.12,13.12,0,0,0,48,47.44a10.63,10.63,0,0,0-4.89-1.53c-.59-.11-1.27.72-1.27,1.26S42.91,48.71,43.47,48.82Z" transform="translate(-2.22 -4.16)" fill="#ae2a24" opacity="0.11"/><path d="M45.69,52.22a13.12,13.12,0,0,1,4.68,1.47l7.41,8.72a21.49,21.49,0,0,0,3.71,4.67,85,85,0,0,0,8,7.41q3.09,2.52,6,5.24A42.46,42.46,0,0,1,82.71,87a1,1,0,0,0,1.78-.18c.38-.79.18-3.63-.42-4.3a60,60,0,0,0-7.53-7.59c-1.48-1.3-3-2.56-4.54-3.79l-7.78-6.65a47.3,47.3,0,0,1-6-6.69,40.36,40.36,0,0,0-7.11-7.37,15.27,15.27,0,0,0-4.88-2.46l-2.61-.39c-.86-.12-1.59.26-1.27,1.26a8.89,8.89,0,0,0,1.52,1.88A9.14,9.14,0,0,0,45.69,52.22Z" transform="translate(-2.22 -4.16)" fill="#ae2a24" opacity="0.11"/><path d="M45.85,48.14a7,7,0,0,1,5.37,2.75A12.64,12.64,0,0,1,56,55.72a65.37,65.37,0,0,0,5.86,7.9,105,105,0,0,0,9.77,8.84l4.07,3.43a55.18,55.18,0,0,1,7.26,7.48,1.4,1.4,0,0,0,1.79-.15A2.38,2.38,0,0,0,84.52,81a57.08,57.08,0,0,0-7.39-7.6q-4.08-3.47-8.23-6.86A59.17,59.17,0,0,1,58.4,55.06a28,28,0,0,0-5.76-6.83c-.78-.6-1.58-1.17-2.42-1.7A12,12,0,0,0,45,44.75,1.18,1.18,0,0,0,43.72,46,3.78,3.78,0,0,0,45.85,48.14Z" transform="translate(-2.22 -4.16)" fill="#ae2a24" opacity="0.11"/><path d="M41,52a6,6,0,0,1,4.21,1.54,8.89,8.89,0,0,1,3.32,2.73c2.34,2.64,3.88,5.81,6.11,8.52,3.37,4.11,7.56,7.44,11.61,10.84L70.36,79a53.62,53.62,0,0,1,7.28,7.48,1.08,1.08,0,0,0,1.78-.17,4.85,4.85,0,0,0-.33-3.53,95.34,95.34,0,0,0-7.46-7.45C69,73,66.11,70.89,63.4,68.58a71.25,71.25,0,0,1-7.75-7.39c-1.41-1.62-2.61-3.41-4-5.06a27.55,27.55,0,0,0-4.07-4.22,16.87,16.87,0,0,0-2.11-1.46,13.28,13.28,0,0,0-5-1.52c-.63-.1-1.28.68-1.27,1.26S40.45,51.88,41,52Z" transform="translate(-2.22 -4.16)" fill="#ae2a24" opacity="0.11"/><path d="M44.32,56.32l4.06,1.34a32.68,32.68,0,0,1,6.42,7.43,48.85,48.85,0,0,0,6.92,8.61c2.56,2.48,5.32,4.75,8,7a75,75,0,0,1,6,5.27,38.81,38.81,0,0,1,5.34,5.75.75.75,0,0,0,1-.1,2.89,2.89,0,0,0,.34-2.08c0-1.61.09-4.59-1.12-5.87a60.51,60.51,0,0,0-7.64-7.46l-4.13-3.39Q65.36,69.54,61.28,66q-3.53-3.54-6.93-7.19a31.11,31.11,0,0,0-7-6A15.57,15.57,0,0,0,40.49,51a.87.87,0,0,0-.75.74,2.05,2.05,0,0,0,.78,1.56C41.43,54.4,42.8,56.07,44.32,56.32Z" transform="translate(-2.22 -4.16)" fill="#ae2a24" opacity="0.11"/><path d="M48.32,51.83l4,1.34,7.4,8.7,1.93,2.77a46.37,46.37,0,0,0,5.55,5.66c2.64,2.4,5.4,4.64,8.13,7a89.33,89.33,0,0,1,9.33,9.23,1,1,0,0,0,1.78-.17c.38-.77.18-3.46-.41-4.1a58.53,58.53,0,0,0-7.52-7.66L74.44,71.1C69.77,67.22,65,63.43,61.27,58.63c-2.53-3.24-5.14-6.69-8.5-9.13a17.43,17.43,0,0,0-8.36-3.09.86.86,0,0,0-.75.74,2.1,2.1,0,0,0,.8,1.58C45.4,49.9,46.77,51.56,48.32,51.83Z" transform="translate(-2.22 -4.16)" fill="#ae2a24" opacity="0.11"/><path d="M42.23,50.34a9.09,9.09,0,0,1,6.11,2.74l1.58,1.7A77.9,77.9,0,0,1,55,61.91c2.86,4.08,6.68,7.33,10.49,10.5Q68.56,75,71.6,77.55A54.75,54.75,0,0,1,78.88,85a1.17,1.17,0,0,0,1.78-.17,3.79,3.79,0,0,0-.29-3,59.15,59.15,0,0,0-7.43-7.5q-4.09-3.45-8.22-6.82A63.69,63.69,0,0,1,54.08,56.23a27.92,27.92,0,0,0-5.3-6,18.24,18.24,0,0,0-2.2-1.51,10.77,10.77,0,0,0-4.87-1.48c-.64-.11-1.28.69-1.27,1.26S41.64,50.23,42.23,50.34Z" transform="translate(-2.22 -4.16)" fill="#ae2a24" opacity="0.11"/><path d="M44.49,49.76a6.55,6.55,0,0,1,5.14,2.47,12.53,12.53,0,0,1,4.7,4.64,80.47,80.47,0,0,0,6,8,103,103,0,0,0,9.83,9l4.07,3.44a56.17,56.17,0,0,1,7.28,7.51,1.18,1.18,0,0,0,1.78-.17,3.8,3.8,0,0,0-.29-3,58.64,58.64,0,0,0-7.45-7.58q-4.08-3.47-8.22-6.85a73.1,73.1,0,0,1-7.76-7.58q-2-2.58-3.93-5.22a34,34,0,0,0-4.26-4.63,19.5,19.5,0,0,0-2.83-2,11.41,11.41,0,0,0-5-1.57,1.13,1.13,0,0,0-1.27,1.26A4.26,4.26,0,0,0,44.49,49.76Z" transform="translate(-2.22 -4.16)" fill="#ae2a24" opacity="0.11"/><path d="M48.11,54.13l4,1.25a33.63,33.63,0,0,1,6.36,7.23,53.8,53.8,0,0,0,6.46,8c1.41,1.4,2.93,2.73,4.42,4.05,2.06,1.71,4.1,3.43,6.14,5.16a67.19,67.19,0,0,1,9.31,9.24.84.84,0,0,0,1-.1,2,2,0,0,0,.38-1.71c0-1.44,0-3.64-1-4.77a59.55,59.55,0,0,0-7.62-7.61l-4.12-3.43A115.9,115.9,0,0,1,61.72,61q-1.72-2.2-3.63-4.26A32.29,32.29,0,0,0,50.6,50.1a17.3,17.3,0,0,0-7.22-2.23c-1.77-.23.16,2.41.26,2.53C44.69,51.66,46.38,53.83,48.11,54.13Z" transform="translate(-2.22 -4.16)" fill="#ae2a24" opacity="0.11"/><path d="M41,53.47q8.37.72,12.05,10.27a32.12,32.12,0,0,0,5.47,6.56q2.13,2,4.38,3.92a141,141,0,0,1,15,14c.56.64,1.39.75,1.78-.17a8.43,8.43,0,0,0,0-2.3,8.33,8.33,0,0,0-.46-2.27,102.78,102.78,0,0,0-7.94-7.82c-5.2-4.59-11-8.5-15.65-13.7-2.29-2.55-4.24-5.42-6.79-7.74a20.85,20.85,0,0,0-4-2.88A10.73,10.73,0,0,0,40,50a1.15,1.15,0,0,0-1.27,1.26A4,4,0,0,0,41,53.47Z" transform="translate(-2.22 -4.16)" fill="#ae2a24" opacity="0.11"/><path d="M82.33,51.52l-2,4.53-9.51,6.37-3.05,1.67A47.73,47.73,0,0,0,61.54,69c-2.67,2.35-5.19,4.85-7.77,7.31a87.34,87.34,0,0,1-10.21,8.26,1.08,1.08,0,0,0,0,1.79,4.92,4.92,0,0,0,3.58,0,59.21,59.21,0,0,0,8.43-6.62q3.9-3.69,7.73-7.45A75.46,75.46,0,0,1,74.91,63.4c3-1.86,6.22-3.72,8.67-6.36a16,16,0,0,0,3.13-4.71c.32-1.06.61-2.13.89-3.2s-1.38-.68-1.75-.53a8,8,0,0,0-1.68,1.14A10.34,10.34,0,0,0,82.33,51.52Z" transform="translate(-2.22 -4.16)" fill="#ae2a24" opacity="0.11"/><path d="M78.89,49.76a8.29,8.29,0,0,1-5,6.28A23.83,23.83,0,0,1,67.69,60a47.09,47.09,0,0,0-7.43,5c-2.83,2.34-5.44,4.9-8.1,7.43l-3.87,3.68A52.56,52.56,0,0,1,40,82.48a.84.84,0,0,0,0,1,2.21,2.21,0,0,0,1.71.57c1.46.16,3.77.43,5-.5a60.47,60.47,0,0,0,8.32-6.75l3.84-3.73A113.4,113.4,0,0,1,70.41,62.74q2.3-1.62,4.61-3.21a29.63,29.63,0,0,0,7.22-6.59,16.51,16.51,0,0,0,2.84-6.76.8.8,0,0,0-.65-.83,2.34,2.34,0,0,0-1.75.7C81.38,46.89,79.34,48.18,78.89,49.76Z" transform="translate(-2.22 -4.16)" fill="#ae2a24" opacity="0.11"/><path d="M79.32,44.41Q78,52.63,68,55.16a32.82,32.82,0,0,0-7.15,4.75q-4.29,3.63-8.26,7.62A77.49,77.49,0,0,1,40.37,77.61a.89.89,0,0,0,0,1,1.94,1.94,0,0,0,1.6.57c1.38.17,3.5.41,4.68-.48a47,47,0,0,0,6.19-5c2-1.75,3.93-3.59,5.78-5.5A108.74,108.74,0,0,1,72.76,56c2.56-1.77,5.29-3.44,7.31-5.86l1.52-2a10.27,10.27,0,0,0,1.66-4.62,1.09,1.09,0,0,0-1.11-1.4A5,5,0,0,0,79.32,44.41Z" transform="translate(-2.22 -4.16)" fill="#ae2a24" opacity="0.11"/><path d="M82,48.13l-.67,2.41L70.58,59l-3,1.65a46.87,46.87,0,0,0-6.18,4.86c-2.67,2.36-5.19,4.86-7.76,7.31A86.2,86.2,0,0,1,43.46,81a1.06,1.06,0,0,0,0,1.79,5.3,5.3,0,0,0,3.78,0,58.4,58.4,0,0,0,8.32-6.62l3.86-3.71C63.7,68.37,67.91,64.18,73,61a56.23,56.23,0,0,0,8.63-6,14.35,14.35,0,0,0,2.71-3,11,11,0,0,0,1.89-4.8,1,1,0,0,0-1.11-1.4A5.64,5.64,0,0,0,82,48.13Z" transform="translate(-2.22 -4.16)" fill="#ae2a24" opacity="0.11"/><path d="M81.79,44.29a5.83,5.83,0,0,1-2,4,9.28,9.28,0,0,1-3.16,3.07c-2.87,2-6.21,3.22-9.13,5.13-4.44,2.89-8.18,6.68-12,10.32L51.7,70.48a52.21,52.21,0,0,1-8.23,6.43,1.07,1.07,0,0,0,0,1.79,5.05,5.05,0,0,0,3.63,0,92.79,92.79,0,0,0,8.19-6.61c2.62-2.41,5.06-5,7.65-7.44A69.32,69.32,0,0,1,71,57.87c1.79-1.24,3.71-2.31,5.54-3.5a26.8,26.8,0,0,0,4.68-3.59,17.86,17.86,0,0,0,1.66-1.92,13.13,13.13,0,0,0,2-4.74,1.31,1.31,0,0,0-1.12-1.4C83.13,42.66,82,43.71,81.79,44.29Z" transform="translate(-2.22 -4.16)" fill="#ae2a24" opacity="0.11"/><path d="M76.69,48.11,74.9,52a32.63,32.63,0,0,1-8.1,5.52,49.33,49.33,0,0,0-9.33,5.93c-2.74,2.27-5.29,4.76-7.87,7.21a75.08,75.08,0,0,1-5.89,5.39,38.42,38.42,0,0,1-6.31,4.67.7.7,0,0,0,0,1,3.12,3.12,0,0,0,2.15.57,36.09,36.09,0,0,0,4.16,0,3.23,3.23,0,0,0,2.17-.52,61.17,61.17,0,0,0,8.25-6.81q3.84-3.74,7.62-7.52a110.67,110.67,0,0,1,11.87-10c2.81-2.06,5.87-4.46,7.56-7.6a18.6,18.6,0,0,0,1.9-5.61c.34-1.65-2.24-.23-2.45-.09C79.3,45.15,77.15,46.49,76.69,48.11Z" transform="translate(-2.22 -4.16)" fill="#ae2a24" opacity="0.11"/><path d="M79.6,52.77l-1.74,3.82L71.5,61.28a82.27,82.27,0,0,0-8,4.76A86.75,86.75,0,0,0,55,73.37,114.78,114.78,0,0,1,41.39,84.94c-.7.49-.91,1.31,0,1.79a8.83,8.83,0,0,0,2.35.26,8.88,8.88,0,0,0,2.35-.22,49.5,49.5,0,0,0,4.84-3.53q4.14-3.43,7.92-7.26c4.25-4.12,8.41-8.12,13.38-11.39,3.56-2.33,7.28-4.49,10.13-7.73a17.86,17.86,0,0,0,4-8.1.77.77,0,0,0-.66-.83,2.71,2.71,0,0,0-1.88.81C82.39,49.65,80.08,51.08,79.6,52.77Z" transform="translate(-2.22 -4.16)" fill="#ae2a24" opacity="0.11"/><path d="M83.79,47.81a6.17,6.17,0,0,1-3,4.76,12.19,12.19,0,0,1-5.1,4.08,75.18,75.18,0,0,0-8.58,5,105.26,105.26,0,0,0-9.91,8.75L53.38,74.1a53.37,53.37,0,0,1-8.25,6.42,1.21,1.21,0,0,0,0,1.79,3.5,3.5,0,0,0,2.87,0,58.41,58.41,0,0,0,8.32-6.56q3.87-3.69,7.69-7.43a70.53,70.53,0,0,1,8.25-6.79q2.17-1.34,4.4-2.59a29.68,29.68,0,0,0,6.89-4.91c.6-.68,1.18-1.36,1.75-2.05a10.81,10.81,0,0,0,2-4.69,1.19,1.19,0,0,0-1.12-1.4A3.79,3.79,0,0,0,83.79,47.81Z" transform="translate(-2.22 -4.16)" fill="#ae2a24" opacity="0.11"/><path d="M78.3,45.74A8.73,8.73,0,0,1,73,52.68a24.32,24.32,0,0,1-6.25,4,46.7,46.7,0,0,0-7.48,5c-2.84,2.33-5.45,4.9-8.11,7.43l-3.88,3.68A51.22,51.22,0,0,1,39,79.12a.76.76,0,0,0,0,1,2.58,2.58,0,0,0,1.92.57c1.55.17,4.3.54,5.64-.47a62,62,0,0,0,8.21-6.78q3.82-3.72,7.6-7.51A98,98,0,0,1,72.7,57.26,38.47,38.47,0,0,0,80.07,51a15.68,15.68,0,0,0,3.32-7.48c.23-1.11-1.3-.73-1.71-.57A7.36,7.36,0,0,0,80.07,44,9,9,0,0,0,78.3,45.74Z" transform="translate(-2.22 -4.16)" fill="#ae2a24" opacity="0.11"/><path d="M80.72,45.63,80.08,48,69.35,56.41,66.4,58.06a43.33,43.33,0,0,0-6.17,4.87c-1.53,1.36-2.83,2.57-4.31,4q-2.73,2.7-5.63,5.22a41.23,41.23,0,0,1-8,6.36c-.69.49-.88,1.31,0,1.79a7.86,7.86,0,0,0,2.26.27,7.85,7.85,0,0,0,2.27-.21,98,98,0,0,0,8.67-7c5.1-4.68,9.65-9.94,15.31-14,2.83-2,6-3.7,8.64-6a20.67,20.67,0,0,0,3.48-3.87,10.67,10.67,0,0,0,1.75-4.68,1.09,1.09,0,0,0-1.12-1.4A5,5,0,0,0,80.72,45.63Z" transform="translate(-2.22 -4.16)" fill="#ae2a24" opacity="0.11"/><path d="M83.64,49.77a6.28,6.28,0,0,1-2.93,4.8,12.31,12.31,0,0,1-5.11,4.15,77.27,77.27,0,0,0-8.71,5.08A103,103,0,0,0,57,72.56l-3.87,3.67a54,54,0,0,1-8.27,6.42,1.18,1.18,0,0,0,0,1.79,3.73,3.73,0,0,0,3,0,57.74,57.74,0,0,0,8.38-6.57q3.89-3.69,7.72-7.44a71.31,71.31,0,0,1,8.31-6.81q2.9-1.76,5.83-3.44a34.86,34.86,0,0,0,5.29-3.9,13.77,13.77,0,0,0,2.34-2.65,11.14,11.14,0,0,0,2-4.86,1.06,1.06,0,0,0-1.12-1.4A5.3,5.3,0,0,0,83.64,49.77Z" transform="translate(-2.22 -4.16)" fill="#ae2a24" opacity="0.11"/><path d="M76.78,50.1,75,53.93a32.31,32.31,0,0,1-8,5.43,48.51,48.51,0,0,0-9.26,5.93c-2.74,2.27-5.28,4.76-7.86,7.22a77,77,0,0,1-5.89,5.38,38.83,38.83,0,0,1-6.28,4.68.72.72,0,0,0,0,1.05,3,3,0,0,0,2.07.57,35.57,35.57,0,0,0,4,0,3,3,0,0,0,2.08-.53,60.23,60.23,0,0,0,8.32-6.8l3.83-3.74q3.78-3.84,7.76-7.48,4-3.3,8.18-6.29a30.14,30.14,0,0,0,7.06-6.74,17.22,17.22,0,0,0,2.83-6.87c.38-1.79-2.5,0-2.64.06C79.84,46.79,77.29,48.33,76.78,50.1Z" transform="translate(-2.22 -4.16)" fill="#ae2a24" opacity="0.11"/><path d="M45.69,75.93H46A.23.23,0,0,0,45.69,75.93Z" transform="translate(-2.22 -4.16)" fill="#cb3e41"/><path d="M72.33,47.54v-.06S72.32,47.53,72.33,47.54Z" transform="translate(-2.22 -4.16)" fill="#cb3e41"/><path d="M55.45,75.8h0l0,.07Z" transform="translate(-2.22 -4.16)" fill="#cb3e41"/><path d="M50.54,81.56c1.37-1.47,2.56-1.27,3.4-3.18a14.43,14.43,0,0,0,1.51-2.57c-.41-.87.73-1,.49-1.86l.5.13c-.08-.3-.08-.57.24-.55l.1.09c-.12-.44.24-.55.18-.77l.11.09.15-.3.12.17A1.31,1.31,0,0,1,58,71.56l-.48-.33c1.08-.32.36-1.34,1.48-1.5l.1.09c-.51-1.79,1.86-.61,1.44-2.37,0,.22.27.15.37.25a1.19,1.19,0,0,0-.38-1.7c.25-.27.47,0,.83.26a.67.67,0,0,1-.16-.94l.06.23.42-.72-.81-.51c.49-.15.93.68,1,.22L61.34,64c.52-.35,1.63.19,2.44.16,1.84-1.49,2.28-4.73,4.87-5.21l.46.37c.6.61-.39-1.35.2-.81l-.07-.46c.16.06.38.09.41.32.2-.13.11-.24.07-.55l.54.23c1-.27.91-1.58,1.81-2,1.58.11,2.71-2,3.45-3.16.38-1,1.5-1.14,2.59-1.2s2.14-.12,2.58-1.18c.11.08.11-.24.07-.32.5-.23,1-.44,1.52-.65a7.52,7.52,0,0,0,2.65-2,2,2,0,0,0,.16-2.22c-.46-.85-1.55-1.86-3.85-2.78l0-.19c-1.13,0-1.78.2-2,1.36-.62-1-.81.27-1.19,0l0-.09c-.13,1.08-1.49,0-1.64,1,0-.09-.17-.37-.05-.46-.32.35-.7.88-1.07.31-.83.67-2.25,1.22-2.23,2.48L73,46.75c.08.82-.35.37-.5.91-.07-.06-.12-.08-.13-.12,0,.82-.93.78-1,1.22L71,48.41l-.61.56.3-.1c.64,1.05-1-.26-1,.74-.54.22.65,2.69-.14,2.56.14.62-.4-.88-.44-.28-.4-.49-.1-.43-.49-.77-.13.49-.92-.1-1,.54l-.33-.37c.08,1.11-1.36.28-1.13,1.22-.25.74-1.31-.82-1.2.37l-.65-.32c-.29.11.39.75-.08.73-.26-.33-.54,0-.66-.4-1,0-.49,1.72-2,1.59.42.74-.28.74,0,1.29-.27-.24-.76.65-.91-.29,0-.08.06-.13.16,0l-.3-.4c-1.06-.26-.37,1.1-.87,1.39.24,0,.36-.19.5.15l-.42.32-.21-.37-.72.39.44.28c-.45.09-1.17-.41-.94.4.16.41.75.21.59.61a6.14,6.14,0,0,0-2,.69c.47.34.33.46.3.67l-.38-.32c0,1-1-.55-1,.32l-.22-.27.66.82c.33,1.11-1-.43-.43,1,.11-.25.9.64.52.74l-.3-.38c0,.2.07.38-.09.4-.12-.25-.49-.5-.6-.24L55,61.08l.34,1c-.64,0-.55.85-1.17.53,0,0-.8.43-.35,1.06-.24-.43-.67-.19-1-.63.26.5.18,1.26-.41,1.11V64c-1,.39-.42,1.75-1.48,2,.48.33,0,.48.6.85,0,1.13-2.16.34-.54,2-.15.39-.71.05-.93.14l0-.15a3.66,3.66,0,0,1-.78,1.3c0,.35.84,1,.34,1.26-.24-.38-.3-.17-.41,0,0-.13-.08-.25-.46-.23a.86.86,0,0,1,.15.28.47.47,0,0,1-.09-.06c-.06.33.08.37.21.29a.65.65,0,0,0,.24.12c-.63-.07-.5.73-1.1.33-.41.85-.19,1.81-.4,2.59a.81.81,0,0,1-.51-.75l-.2.52c-.43-.31-.07-.43-.06-.63-1.08,0-.07,1.58-1.15,1.74l.25.37H46a.88.88,0,0,1,.33.57c-.44-.18-.87-.63-1.07-.3-.54,0-.29.81-.31,1.27.19-.12.36.08.44.25-.09.16-.53,0-.45.21l-.53-.35c.53.28.25.77.42,1-.44-.18-.16-.46-.43-.7l-.56,1c.16.6.53.28.87.76-.1.35.07.88-.47,1l.53.21c0,.79-.29,1.08-1,1.12,1,6.61,4.54,4.38,4.54,4.38C50.38,85.41,49.6,83.67,50.54,81.56Z" transform="translate(-2.22 -4.16)" fill="#cb3e41"/><path d="M54.27,48.4l-.06.27A.24.24,0,0,0,54.27,48.4Z" transform="translate(-2.22 -4.16)" fill="#d03c42"/><path d="M78.1,73.54h0Z" transform="translate(-2.22 -4.16)" fill="#d03c42"/><path d="M52.88,57.71h0l-.07,0Z" transform="translate(-2.22 -4.16)" fill="#d03c42"/><path d="M48.31,52.77c1.15,1.37.77,2.5,2.42,3.37a10.79,10.79,0,0,0,2.15,1.57c.88-.35.82.75,1.65.56l-.19.48c.28-.06.54,0,.48.25l-.11.1c.43-.1.48.25.7.2l-.11.1.26.16-.17.11a1.06,1.06,0,0,1,1.06.71l.39-.44C57,61,58,60.35,58,61.42l-.1.1c1.76-.41.31,1.8,2,1.48-.21,0-.17.25-.28.34.43.2.83.49,1.66-.3.22.25-.07.44-.36.78a.64.64,0,0,1,.91-.11l-.22,0,.63.43.58-.76c.08.47-.76.86-.34,1l.57-.54c.26.51-.38,1.55-.45,2.32,1.23,1.81,4.28,2.24,4.58,4.69l-.39.45c-.62.58,1.33-.4.77.17l.45-.07c-.07.15-.1.36-.33.4.12.18.23.1.53.05l-.26.52c.23.93,1.51.81,1.91,1.66-.15,1.52,1.91,2.47,3.09,3.06,2,.53.48,4.14,2.66,4.62-.06.11.24.07.32,0l.81,1.33a9.88,9.88,0,0,0,.69.84,4.62,4.62,0,0,0,1.67,1.24c1.32.49,3-.05,4.23-4.51l.18-.07c-.13-1-.38-1.51-1.5-1.45.88-.75-.33-.65-.15-1L82,78c-1,.09-.06-1.34-1-1.28.08,0,.35-.22.43-.14-.34-.21-.86-.47-.34-.9-.69-.62-1.2-1.82-2.41-1.63l.17-.08c-.77.18-.34-.27-.86-.33.06-.07.07-.12.11-.14-.79.16-.74-.76-1.16-.8l.34-.29-.52-.5.09.27c-1,.69.27-.9-.68-.81-.19-.47-2.6.84-2.45.08-.59.18.86-.43.29-.42.49-.42.42-.13.75-.52-.45-.08.14-.86-.47-.93l.38-.33c-1.06.15-.19-1.24-1.1-1-.69-.18.87-1.25-.26-1.09l.36-.62c-.09-.27-.75.39-.69,0,.33-.26,0-.5.43-.63.07-.94-1.59-.39-1.31-1.78-.75.4-.67-.25-1.22.06.25-.26-.53-.7.37-.85.08,0,.12.05,0,.14l.4-.28c.37-1-1-.33-1.2-.79,0,.22.14.33-.2.46L70,62.52l.37-.21-.27-.66-.32.41c0-.42.53-1.09-.25-.88-.41.15-.3.7-.65.55a5.32,5.32,0,0,0-.39-1.93c-.38.44-.47.31-.66.28l.35-.36c-.92,0,.64-.91-.17-1l.29-.2-.86.6c-1.09.29.54-.92-.84-.43.22.12-.72.84-.76.48l.4-.28c-.19,0-.37.06-.37-.09.25-.11.54-.45.31-.56l.55-.3-1,.29c.13-.6-.72-.54-.33-1.12,0,0-.29-.76-.93-.36.43-.22.27-.64.73-.93-.5.22-1.2.12-1-.43l.07,0c-.2-1-1.57-.46-1.63-1.48-.38.44-.44-.07-.89.53-1,0,0-2.07-1.76-.61-.34-.16.06-.68,0-.89l.15,0a2.8,2.8,0,0,1-1.09-.82c-.33,0-1.08.74-1.23.26.39-.21.21-.28.09-.39.12,0,.25-.07.28-.42a.9.9,0,0,1-.28.12.25.25,0,0,1,.07-.08c-.31-.08-.36,0-.3.18a.59.59,0,0,0-.15.22c.16-.59-.61-.5-.15-1.06-.72-.43-1.65-.29-2.35-.53a.83.83,0,0,1,.77-.44l-.45-.22c.36-.4.41-.05.6,0,.14-1-1.47-.14-1.46-1.19l-.38.23v-.08a.87.87,0,0,1-.58.28c.24-.41.71-.8.44-1,.1-.52-.72-.33-1.15-.37.1.19-.12.34-.29.41-.14-.09.09-.51-.14-.44l.4-.49c-.33.49-.75.2-1,.36.23-.42.46-.14.72-.38l-.83-.59c-.58.13-.34.5-.82.81-.32-.11-.84,0-.87-.5l-.27.5c-.73,0-1-.31-.91-1-3.15.36-4.29,1.45-4.66,2.41a2.55,2.55,0,0,0,0,1.82C44.8,52.5,46.5,51.8,48.31,52.77Z" transform="translate(-2.22 -4.16)" fill="#d03c42"/></svg>