<?xml version="1.0" encoding="utf-8"?>
<!DOCTYPE svg PUBLIC "-//W3C//DTD SVG 1.1//EN" "http://www.w3.org/Graphics/SVG/1.1/DTD/svg11.dtd">
<svg version="1.1" id="Layer_1" xmlns="http://www.w3.org/2000/svg" xmlns:xlink="http://www.w3.org/1999/xlink" x="0px" y="0px"
	 viewBox="0 0 1631.7501 1754.2384" enable-background="new 0 0 1631.7501 1754.2384" xml:space="preserve">
<g>
	<path d="M435.64,418.757c2.5339-3.5781,4.6662-6.7589,6.9866-9.796c1.2051-1.5773,1.5759-3.2004,1.4385-5.1139
		c-1.085-15.1088-2.0577-30.226-3.2148-45.3291c-0.7625-9.9533-8.669-15.8436-18.6528-14.0766
		c-5.3013,0.9383-10.1987,3.0137-14.8613,5.6414c-3.8387,2.1634-7.6196,4.4293-12.6975,7.3913
		c10.7388-19.9424,21.6037-37.4726,45.3879-40.4499c2.0178-0.2526,2.7173-1.4049,3.3029-3.1426
		c5.5778-16.5511,11.197-33.0885,16.8987-49.5973c0.7378-2.1361,0.3246-3.7439-0.8373-5.5577
		c-4.9822-7.778-12.725-10.5794-22.6606-8.1393c-7.1443,1.7545-13.4588,5.4627-20.8879,9.0506
		c2.1747-5.4909,5.4146-9.1347,8.6419-12.729c11.5103-12.8194,26.1205-20.4259,42.5632-24.7279
		c3.2918-0.8612,5.4071-2.2232,6.9218-5.4473c9.8083-20.8786,23.2222-39.2408,39.8468-55.1859
		c2.9082-2.7893,2.7485-4.8723,0.7008-7.634c-4.7043-6.3445-11.7176-7.9508-18.8897-8.815
		c-7.3954-0.8911-14.8552-1.2473-23.8279-1.9598c9.6486-4.9705,18.4692-7.8754,27.5564-9.9799
		c11.3528-2.6291,22.7777-3.013,34.13-0.027c2.5266,0.6646,4.4379,0.0387,6.5621-1.1165
		c13.0137-7.0779,26.0754-14.0675,39.1213-21.0862c8.4017-4.5201,10.7908-12.879,6.0751-21.4208
		c-3.4014-6.1612-8.8262-10.3314-14.3624-14.3672c-2.744-2.0003-5.5428-3.9255-9.3936-6.6451
		c11.8877,0.5842,22.1897,1.7059,32.1009,5.4003c9.3743,3.4942,16.9765,9.2554,22.2449,17.7138
		c1.8427,2.9585,3.7357,3.4462,6.901,3.0964c15.0559-1.664,30.1298-3.1838,45.2155-4.5543
		c9.8318-0.8932,15.262-8.3732,12.803-18.1239c-1.5313-6.0722-5.3802-10.6638-9.8354-14.7533
		c-3.632-3.334-7.522-6.3869-11.8573-10.0356c5.2503-0.3711,9.4797,1.0148,13.6685,2.2538
		c19.0181,5.6255,33.3352,17.7015,44.8544,33.3792c2.0128,2.7395,3.9545,3.6199,7.3575,3.4648
		c18.9806-0.8651,37.9839-0.8849,56.9676-0.1719c4.4982,0.1689,4.5307-1.1416,3.3761-4.6768
		c-4.9206-15.0661-14.8973-26.1691-27.3245-35.3817c-12.9335-9.588-27.3509-16.4631-42.0615-22.7852
		c-1.4928-0.6416-2.9712-1.3166-4.2535-2.8697c10.894,1.3208,21.8055,2.5121,32.6788,3.9857
		c38.3017,5.191,76.2601,12.0994,113.3417,23.2392c3.1091,0.934,3.9069,0.274,3.1204-2.8983
		c-1.677-6.7645-3.1613-13.5768-4.7941-20.6719c2.3371-0.5621,4.0287,0.6995,5.7036,1.4371
		c19.2528,8.4787,36.3813,20.114,51.3308,34.9213c1.4058,1.3924,3.2618,2.9287,3.6213,4.6648
		c1.011,4.8808,4.7262,6.2618,8.5093,8.0488c32.0979,15.1618,61.9927,33.8495,88.6302,57.3546
		c9.9736,8.8009,21.0452,15.0394,33.3577,19.5089c32.5093,11.8009,66.1779,18.9711,100.1256,24.9833
		c40.7194,7.2115,81.8002,11.0482,123.0836,12.9772c7.8479,0.3667,15.5103,1.9494,22.8699,4.7929
		c14.7374,5.694,21.798,15.9317,22.1332,31.6706c0.2261,10.6162-2.1349,20.8351-4.3951,31.0739
		c-1.9363,8.772-4.0198,17.5121-6.1016,26.2512c-0.4309,1.8087-0.2938,4.4263-3.3165,3.9382
		c-3.5615-0.5752-4.879,1.5811-6.3241,4.2425c-9.1063,16.7701-20.392,31.9238-34.2297,45.3055
		c4.3959-15.9492,8.915-31.8057,9.0516-49.9819c-5.9254,7.1063-10.8651,13.4507-16.9893,18.6443
		c-6.2197,5.2746-12.7308,10.1142-20.8839,14.4104c5.0255-11.7132,10.1515-22.5054,10.505-36.2427
		c-9.5811,8.7018-18.9462,15.7881-30.507,20.9381c2.0074-6.8995,4.0592-13.0394,4.4865-19.519
		c0.0957-1.4511,0.7517-2.9897-1.1412-3.8914c-1.8054-0.8601-2.7388,0.2893-3.8137,1.3944
		c-5.774,5.9351-12.4395,10.4247-21.1382,12.851c1.0066-4.9005,2.8361-9.2636,2.5785-13.9086
		c-0.0947-1.708,0.4305-3.8121-2.0211-4.5624c-2.2628-0.6925-2.8483,1.239-3.8165,2.4478
		c-4.3569,5.4394-9.9404,9.162-16.5791,12.2938c0.4899-4.8664,1.0328-9.2587,1.3285-13.6676
		c0.1256-1.8729,0.7292-4.3036-1.9578-5.0311c-2.3452-0.6348-4.6183-1.3131-6.9841,0.7635
		c-5.2363,4.5966-11.0947,8.3357-17.6752,11.5486c0.6002-4.7252,1.2393-8.9694,1.6274-13.2364
		c0.1367-1.5031,0.7751-3.5575-1.5126-4.2117c-2.0822-0.5955-4.1079-1.0344-5.9397,1.0186
		c-3.8889,4.3587-8.386,7.9955-14.1696,10.9684c0.6407-4.5671,1.4769-8.5919,1.0153-12.6594
		c-0.1532-1.3494,0.4124-3.0328-1.5822-3.7787c-1.9758-0.7388-3.0996,0.267-4.3209,1.517
		c-5.0308,5.1493-10.7294,9.318-17.892,12.276c0.4717-4.6587,1.0922-8.743,1.2094-12.8416
		c0.0547-1.9177,1.2965-4.3841-1.3531-5.7975c-2.8293-1.5093-4.5902,0.2213-6.5361,1.9097
		c-4.0071,3.4767-8.281,6.5655-13.8849,8.3169c0.3716-3.8863,0.7795-7.3208,0.9901-10.7673
		c0.0848-1.3897,0.5747-3.0615-1.2866-3.9212c-1.9375-0.8951-3.0624,0.2519-4.3125,1.4604
		c-6.1123,5.9093-12.7438,11.1127-21.0416,15.2875c1.5571-6.1915,3.7139-11.6322,3.6202-17.4623
		c-0.0216-1.3449,0.7455-3.1524-1.3738-3.7812c-2.0176-0.5986-2.5549,1.0576-3.3243,2.2791
		c-3.838,6.0926-8.4756,11.4185-15.3586,16.2056c0.8887-6.388,1.3367-11.9523-0.0983-17.3633
		c-0.4723-1.7807-0.132-4.3421-2.6134-4.9674c-2.4717-0.6229-2.812,1.9251-3.8695,3.2153
		c-4.2802,5.2222-9.3917,9.3401-15.8676,12.6947c0.9026-5.1781,3.0026-9.7026,2.3175-14.5571
		c-0.2145-1.5203,0.1205-3.5892-1.8942-4.2462c-1.7667-0.5761-2.6436,1.0457-3.71,2.0225
		c-5.5514,5.0848-11.8137,9.1071-19.0654,13.1067c0.7531-4.4945,1.5751-8.2788,1.9453-12.1067
		c0.1722-1.782,1.0033-4.2343-1.4146-5.2745c-2.6471-1.1389-3.7397,1.0175-5.093,2.7677
		c-3.1237,4.0397-6.4103,7.9554-11.2554,10.7767c0.0326-4.2336,1.061-7.9742,0.3071-11.8176
		c-0.4352-2.2188-1.2629-3.0444-3.5547-3.0477c-12.9955-0.0187-25.9767-0.0545-38.932,1.3731
		c-3.7179,0.4097-4.2047,2.1093-3.8466,5.2525c1.6129,14.1524,7.9608,25.9478,17.6674,36.1137
		c9.444,9.8907,20.6106,17.1132,33.0876,22.7695c51.4944,23.3442,105.3787,39.0253,160.5092,50.8145
		c17.5752,3.7583,35.2129,7.2003,52.9475,10.1334c0.7773,0.1286,1.5116,0.5172,2.5764,0.8949
		c-3.0142,4.1427-7.2488,5.6342-11.4912,6.8578c-13.4337,3.8743-27.2593,4.3132-41.0997,4.0843
		c-54.5819-0.9027-107.929-10.4815-160.7194-23.5238c-41.9094-10.3541-82.9432-23.4103-121.8011-42.5372
		c-20.8516-10.2637-40.7691-21.9814-56.8666-39.1924c-5.5057-5.8865-10.1556-12.3469-13.1919-19.8606
		c-0.8011-1.9825-1.6561-3.2652-4.2138-3.3007c-30.517-0.4231-60.5635,2.2344-89.3187,13.4139
		c-17.8162,6.9267-33.9226,16.635-45.8683,31.7965c-11.2857,14.3239-16.4882,31.4176-19.3807,49.1746
		c-5.2579,32.2782,1.9061,62.8782,13.2582,92.7932c8.0496,21.2121,17.4224,41.9924,29.9798,60.788
		c6.8441,10.2441,15.0367,19.8535,22.2905,29.9777c38.3281,53.4966,75.2737,107.9146,108.5548,164.738
		c1.5546,2.6543,3.3015,3.6768,6.3753,3.4474c12.2808-0.9166,24.568-1.8638,36.8706-2.3361
		c11.17-0.4288,21.2506,3.4464,30.6052,9.2802c13.8389,8.6305,24.2892,20.6552,33.5348,33.8461
		c6.8967,9.8398,12.6508,20.3484,18.2319,30.9732c1.6088,3.0625,1.0784,5.0099-1.1442,7.414
		c-16.5591,17.9113-36.7736,29.4133-60.4704,34.9257c-0.7976,0.1855-1.5955,0.3699-2.6796,0.6212
		c4.4177,11.1481,8.9761,22.0206,13.0547,33.0701c9.686,26.2409,18.8092,52.6531,22.9021,80.5024
		c3.9425,26.8259,4.3716,53.7457,2.2031,80.7172c-6.4501,80.2305-28.9797,156.6184-57.2461,231.3468
		c-38.6312,102.1302-81.84,202.3698-128.8936,300.922c-11.8319,24.7815-24.1173,49.349-36.4487,73.887
		c-1.754,3.4901-0.8579,5.0249,1.6912,7.3148c27.1025,24.3475,59.2559,39.137,93.6218,49.7656
		c24.5189,7.5831,49.3231,13.9686,74.9297,16.6053c12.2993,1.2664,24.5903,1.0251,36.8542-0.9463
		c8.2809-1.3311,16.5861-1.3636,24.7045,1.3538c3.5221,1.1788,7.1532,2.5952,9.4886,5.3284
		c4.3688,5.1134,10.1459,7.0115,16.1379,9.1066c10.7004,3.741,20.1305,9.5908,27.1588,18.7493
		c1.0627,1.385,2.5924,2.6104,2.5133,5.0166c-3.1718-0.4998-6.2604-0.9216-9.3231-1.4839
		c-4.7965-0.8807-9.6167-0.8763-14.4449-0.5082c-6.4731,0.4937-6.4706,0.5275-5.606,6.9629
		c0.6962,5.181,0.3875,5.4679-6.2385,5.6782c-24.4873,0.7771-48.965,0.4901-73.4438-0.473
		c-38.2674-1.5057-76.4601-4.2859-114.6758-6.6516c-39.5623-2.4492-79.1183-4.6938-118.7783-4.8118
		c-25.5232-0.0758-50.9157,1.3435-76.248,4.446c-10.2076,1.2501-19.9755-0.4307-28.1153-7.4171
		c-1.6374-1.4053-3.2057-1.3438-5.0717-1.1003c-21.3029,2.7795-42.6825,4.7964-64.1392,5.8191
		c-16.8161,0.8016-33.6379,1.048-50.2443-2.5988c-8.7086-1.9125-15.0427-6.108-19.4681-14.5692
		c-10.4221-19.9266-26.5269-35.3167-43.0527-50.1692c-21.3641-19.2012-45.3565-34.988-68.1991-52.2692
		c-3.3181-2.5103-6.4394-5.2791-9.7014-7.8655c-14.7822-11.7202-17.4411-28.1884-16.8014-45.3728
		c0.4736-12.7206,8.2036-21.5228,19.1292-27.402c13.8537-7.4548,28.9257-11.1294,44.4455-12.191
		c8.9392-0.6113,16.416-3.0022,23.7821-8.2935c27.0492-19.4294,53.5267-39.6965,81.9218-57.2075
		c19.7444-12.1761,40.2232-22.8672,62.0792-30.7418c3.1614-1.139,4.223-2.6074,4.246-6.042
		c0.3746-56.0189,4.9387-111.7274,12.3503-167.2407c1.1649-8.7257,1.5431-17.5706,3.5304-26.1819
		c0.7833-3.3942-1.6649-4.7841-3.4606-6.6016c-6.5295-6.6084-6.5928-6.6591-14.6454-1.9458
		c-13.7643,8.0566-23.8438,19.3296-30.6541,33.8656c-13.8376,29.5349-28.0714,58.8844-42.1935,88.2855
		c-4.1675,8.6766-11.0841,15.0105-18.7802,20.3567c-23.5936,16.3896-49.5243,25.0552-78.6052,24.7554
		c-21.9957-0.2267-43.1475-3.1965-62.8642-13.3164c-20.7932-10.6724-36.9308-26.0273-46.4224-47.7213
		c-25.0311-57.2122-30.2382-115.7823-11.408-175.7957c6.2878-20.0398,20.026-35.2288,34.9548-49.1428
		c29.2435-27.2557,63.4963-44.8435,103.2744-50.7102c15.7008-2.3156,31.6259-3.7573,46.7615,2.8956
		c22.674,9.9667,35.0222,28.1799,38.9637,52.0211c4.6237,27.9674-4.9309,52.4781-20.3729,75.1591
		c-6.2208,9.137-14.2073,16.6843-22.2261,24.2622c-20.4267,19.3038-57.9319,13.7281-73.2055-14.8942
		c-3.0991-5.8075-4.547-10.6075-4.8379-16.0365c4.3144,3.0081,8.2949,5.9551,12.4448,8.6403
		c8.0312,5.1963,16.3395,9.6028,26.3455,9.5725c7.5348-0.0228,14.4814-2.2001,19.6473-7.359
		c18.0777-18.0533,27.7258-39.4691,22.9822-65.4905c-3.901-21.4003-22.3183-32.9104-45.0154-28.775
		c-22.965,4.1843-41.5964,16.3889-58.2858,31.9755c-4.613,4.3081-8.7787,9.1177-12.9505,13.8719
		c-14.5862,16.6229-21.7413,36.2775-23.9843,58.0874c-3.3073,32.1571-2.124,63.8492,8.4854,94.7277
		c0.6483,1.8872,1.4445,3.7238,2.083,5.6139c7.9304,23.476,25.1355,29.349,44.5824,30.0872
		c22.2025,0.8425,42.0467-5.8768,58.6328-20.9978c8.3291-7.5934,14.2781-16.9695,16.399-28.0309
		c7.8864-41.1302,25.6738-77.881,48.7902-112.3418c6.5875-9.8204,13.3091-19.5552,20.1845-29.1754
		c1.8883-2.6423,2.5165-5.1571,2.1649-8.3267c-4.1988-37.8389-4.248-75.7443-2.1006-113.7205
		c3.6339-64.2649,13.6764-127.7368,23.0601-191.3015c6.6858-45.2892,13.0457-90.6313,15.9724-136.357
		c1.7139-26.7775,2.0735-53.5856,0.3995-80.3964c-0.1686-2.7007-0.7983-3.3884-3.5784-2.6293
		c-5.6316,1.5378-11.2089,3.1866-16.4872,5.6793c-17.7582,8.3866-24.0795,21.6741-19.4795,40.8737
		c7.0409,29.3878,11.7303,59.1265,12.0868,89.3796c0.8128,68.9785-23.6747,127.9539-70.3082,178.4398
		c-17.5692,19.0206-38.5422,33.759-58.3343,50.0226c-84.3748,69.3329-143.123,155.5859-172.37,261.2914
		c-8.0502,29.0952-13.5927,58.6649-16.7387,88.6869c-0.0999,0.9537-0.3474,1.892-1.0392,2.8844
		c-14.5425-74.1259-28.4288-148.3256-39.3406-224.6619c-30.8441,48.3608-51.8787,99.4692-67.1614,153.3785
		c-0.3479-8.1735-0.7809-16.3444-1.0303-24.5208c-2.006-65.7722-4.0197-131.545-3.4105-197.3622
		c0.5706-61.6395,3.1601-123.174,10.1329-184.4575c7.9438-69.8174,20.8705-138.5434,45.9295-204.5125
		c18.4856-48.6642,42.8128-94.0251,78.7679-132.1525c16.2404-17.2216,30.1055-35.9418,42.5976-55.8886
		c5.4073-8.6343,6.3603-18.5083,8.4041-28.0169c9.0901-42.2901,11.7125-85.043,8.0725-128.152
		c-0.5878-6.9612-1.452-13.9173-2.6112-20.8046c-0.6014-3.5732,0.2998-4.9424,3.8855-5.7072
		c14.3182-3.0538,28.5443-6.5401,42.8648-9.5822c3.1157-0.6618,4.0376-1.9793,4.121-4.9459
		c0.2621-9.3187,0.8309-18.6287,1.1065-27.9472c0.0714-2.4143,0.6558-3.569,3.2974-3.7485
		c19.5941-1.3314,39.1849-2.7224,58.7638-4.2594c3.5047-0.2751,3.6544,2.0681,4.275,4.2577
		c7.8984,27.8696,17.3067,55.2146,28.5508,81.9155c19.6222,46.5959,44.4617,90.1303,76.209,129.5987
		C434.1217,417.1072,434.811,417.822,435.64,418.757z M602.2327,1467.6071c-2.059,0.913-2.3397,2.6931-3.1208,4.0717
		c-6.3972,11.2896-12.8699,22.5387-19.082,33.9298c-3.0823,5.6522-7.5012,9.5917-13.1425,12.4907
		c-12.9482,6.6542-26.7603,10.9421-40.668,14.9209c-43.5149,12.4489-87.8519,21.5422-131.8249,32.1219
		c-9.6324,2.3175-9.9445,2.3611-7.504,11.8688c9.6947,37.7689,33.0643,64.896,66.0492,84.5874
		c8.0784,4.8228,16.0475,5.7859,25.2151,3.4974c16.2485-4.0555,32.4143-9.1855,49.5278-8.057
		c2.4215,0.1597,2.6065-1.6863,3.21-3.0969c7.9717-18.6332,19.3804-34.9468,34.0568-48.8076
		c5.7859-5.4642,9.4037-11.825,12.2375-19.0062c10.031-25.4209,14.8568-52.0787,18.9966-78.9075
		C598.2069,1494.108,600.1904,1480.9894,602.2327,1467.6071z M834.785,733.0298c8.8085,17.3835,17.1791,33.9031,25.5498,50.4226
		c0.3268-4.5491,0.2358-8.8773-0.2617-13.1581c-1.08-9.2932-2.6606-18.502-7.7486-26.6149
		C848.4386,737.4833,843.2363,733.2318,834.785,733.0298z"/>
	<path d="M1300.1296,1462.2604c2.8022-10.5228,5.3118-20.1271,7.9232-29.7034c2.7162-9.9598,5.8784-19.7866,9.9952-29.2563
		c1.3741-3.161,0.8048-4.4817-2.3666-5.8934c-21.5885-9.6106-43.1561-19.2769-64.2549-29.9406
		c-7.2827-3.6809-14.4948-7.4867-21.17-12.2334c-3.1661-2.2512-4.7355-5.0344-5.278-9.0659
		c-4.1034-30.4966-3.9484-61.1542-3.9154-91.8147c0.0132-12.3171,0.0021-24.6344-0.6105-37.3134
		c-38.0343,47.6121-77.9569,93.376-121.8348,137.4005c-0.7521-7.9435-1.0475-14.8152-0.3318-21.621
		c1.5188-14.4396,1.1774-28.9406,1.832-43.4054c2.6624-58.8396,16.1375-114.7634,42.8044-167.5466
		c11.0699-21.9114,26.6899-39.627,44.6448-55.7899c25.9606-23.3696,53.8844-43.543,87.5558-54.454
		c18.9054-6.1262,38.2499-8.7175,58.1321-6.7709c8.0405,0.7872,16.2279-0.3215,24.2935,1.6124
		c-0.3186,2.6141-1.8728,4.4392-2.985,6.4353c-30.0259,53.8865-62.9713,105.9248-98.9972,156.0022
		c-1.7493,2.4316-2.8317,4.7361-2.3442,7.7866c0.9092,5.6912-1.4847,11.0341-2.0404,16.5828
		c-0.1395,1.3945-0.8552,3.2522-1.9244,3.9506c-8.5813,5.6061-6.3929,14.0551-5.9633,21.9636
		c1.2827,23.6107,2.771,47.2104,3.984,70.8245c0.1934,3.7627,1.7086,5.2286,5.2578,5.6841
		c5.6677,0.7275,10.5702-0.5929,14.6929-4.5646c9.4126-9.0677,10.4945-23.2712,2.4706-33.6031
		c-5.8365-7.5155-13.7284-12.5784-21.7227-17.3949c-2.8138-1.6953-3.2041-2.8597-1.3057-5.6437
		c4.1965-6.1531,5.9639-13.0808,4.1207-20.4399c-0.7782-3.1075,1.308-3.2836,2.9714-4.0879
		c11.5612-5.5906,21.4512-13.3434,29.9983-22.8939c1.6277-1.8187,2.5839-3.663,2.6968-6.1791
		c0.6515-14.4967,1.9485-29.1923,6.1494-42.8761c5.0684-16.5101,13.2511-31.8875,28.7448-41.9701
		c14.2217-9.2549,29.5588-12.6462,46.1896-10.4824c24.9568,3.2472,46.2946,15.106,66.9093,28.5815
		c3.3293,2.1764,6.575,4.481,10.3127,7.0364c-0.0016-4.9857-3.0636-7.9677-5.1885-11.5928c1.811-0.2859,2.7493,1.0669,3.8381,1.8514
		c14.2494,10.2675,27.6444,21.4478,38.0687,35.7944c14.833,20.4141,17.0287,41.6483,4.7058,64.1339
		c-6.4647,11.7965-14.6774,22.1659-23.7526,32.0029c-7.098,7.6936-14.9829,14.5142-22.8154,21.3774
		c-16.6387,14.5797-30.5471,31.3024-41.4663,50.5612c-4.5208,7.9736-9.4644,15.743-16.1218,22.1514
		c-2.2339,2.1504-1.4362,4.5353-1.7643,6.9115c-1.3052,9.4507,1.2294,15.3612,11.6213,18.4839
		c10.9385,3.2871,19.2213,11.6742,27.0181,20.0345c23.4657,25.1622,37.8195,55.3212,48.2239,87.6654
		c9.9927,31.0645,16.7229,63.0269,25.9978,94.2896c6.4961,21.8961,14.2124,43.3065,24.6442,63.6809
		c19.7698,38.6119,48.3362,69.1279,84.825,92.3772c2.9219,1.8619,5.8644,3.6917,10.1279,6.3733
		c-6.7479,0.5841-12.0844,1.1196-17.4319,1.4965c-30.9213,2.1796-61.8501,4.1469-92.8809,3.3301
		c-12.8335-0.3378-25.5845-1.8046-38.3734-2.6287c-13.6073-0.8768-27.2595-0.8779-40.7346-3.3745
		c-9.3271-1.7281-18.7604-2.9541-28.0096-5.0165c-16.9185-3.7723-33.834-1.8964-50.7535-0.6005
		c-11.4568,0.8776-22.8806,2.1821-34.3202,3.2865c-1.7538,0.1694-3.3884,0.7863-3.604-2.2991
		c-0.1049-1.4998-2.887-0.975-4.4645-1.0488c-17.6426-0.8264-35.2921-1.5085-52.9321-2.3855
		c-10.4795-0.521-20.9884-1.0326-31.3386-2.8156c-8.9128-1.5355-17.0818,2.0406-25.5963,3.1193
		c-17.4125,2.2058-34.8303,3.3317-52.3389,2.0063c-3.6913-0.2794-5.297,0.4363-4.6963,4.3781
		c0.6561,4.3055-1.1483,5.6523-5.6228,5.4629c-17.3743-0.7356-34.5386,2.374-51.8274,3.3832
		c-9.7106,0.5669-19.2983,0.0479-28.8571-1.661c-3.2875-0.5878-4.4242-1.7617-3.1411-5.3553
		c3.366-9.4268,7.9276-12.9445,18.0432-13.474c11.9806-0.6271,23.9351-1.567,35.5098-5.0696
		c6.4993-1.9667,11.9576-5.3082,16.5741-10.5421c13.8044-15.65,26.249-32.3202,38.2975-49.3188
		c1.3837-1.9521,2.0977-5.7799,6.1611-2.6843c1.4741,1.123,2.3455-1.3181,3.1631-2.3485
		c5.4937-6.9235,11.467-13.4148,17.3417-20.0096c11.0217-12.3728,26.0326-16.1364,41.0837-19.9147
		c16.1599-4.0566,32.5396-7.0341,49.0593-9.1602c3.9261-0.5052,5.819-1.5586,6.5684-6.1012
		c5.7705-34.9771,11.1284-70.0331,18.4198-104.7428c0.5732-2.7288-0.2158-4.7043-1.9166-6.8135
		c-7.4252-9.2073-14.6841-18.5485-22.0226-27.8259c-2.1857-2.7634-4.0902-5.6631-5.0319-9.1115
		c-0.6378-2.3348-1.0309-4.7362,1.0211-6.496c2.2742-1.9503,4.7469-0.9358,6.9908,0.2576c3.463,1.8418,5.9083,4.812,8.2888,7.8379
		C1288.7628,1447.907,1294.1992,1454.7596,1300.1296,1462.2604z M1250.464,1321.8027c-0.4852,2.9902,0.5797,5.6133,0.4264,8.2095
		c-0.29,4.9133,2.1624,7.3101,6.3107,9.3929c10.4364,5.24,21.0823,9.9369,32.1577,13.5973
		c14.8462,4.9066,29.757,9.6193,44.6626,14.3435c1.5607,0.4946,3.2181,2.7233,4.7942,0.8376
		c1.3353-1.5975,0.5992-3.792-0.0917-5.7344c-2.4923-7.0077-6.5756-13.0334-11.2111-18.7715
		c-1.6964-2.1-3.5952-3.2084-6.2996-3.4048c-8.6718-0.6302-17.1267-2.527-25.4448-4.9583
		C1280.772,1330.9312,1265.8209,1326.3923,1250.464,1321.8027z M1232.4703,1640.8899
		c-19.0016-3.8359-31.3795,5.2323-43.2898,15.4517c0.207,0.5165,0.4141,1.0328,0.6211,1.5493
		C1203.6144,1652.3873,1217.4271,1646.8838,1232.4703,1640.8899z M1181.0177,1668.0465
		c-10.7061,9.0778-20.4324,17.9006-29.2866,27.7894c8.9844-4.2496,17.6715-8.9485,26.3678-13.6306
		c1.2374-0.6663,1.213-1.7998,1.3568-2.9734C1179.8757,1675.8024,1180.4026,1672.386,1181.0177,1668.0465z"/>
</g>
</svg>
