<?xml version="1.0" encoding="UTF-8" standalone="no"?>
<!-- Created with Inkscape (http://www.inkscape.org/) -->

<svg
   xmlns:dc="http://purl.org/dc/elements/1.1/"
   xmlns:cc="http://creativecommons.org/ns#"
   xmlns:rdf="http://www.w3.org/1999/02/22-rdf-syntax-ns#"
   xmlns:svg="http://www.w3.org/2000/svg"
   xmlns="http://www.w3.org/2000/svg"
   xmlns:sodipodi="http://sodipodi.sourceforge.net/DTD/sodipodi-0.dtd"
   xmlns:inkscape="http://www.inkscape.org/namespaces/inkscape"
   width="143.70946mm"
   height="225.77777mm"
   viewBox="0 0 509.20674 799.99997"
   id="svg5136"
   version="1.1"
   inkscape:version="0.91 r13725"
   sodipodi:docname="StylisedLion11.svg">
  <defs
     id="defs5138" />
  <sodipodi:namedview
     id="base"
     pagecolor="#ffffff"
     bordercolor="#666666"
     borderopacity="1.0"
     inkscape:pageopacity="0.0"
     inkscape:pageshadow="2"
     inkscape:zoom="0.83750003"
     inkscape:cx="254.60337"
     inkscape:cy="399.99999"
     inkscape:document-units="px"
     inkscape:current-layer="layer1"
     showgrid="false"
     fit-margin-top="0"
     fit-margin-left="0"
     fit-margin-right="0"
     fit-margin-bottom="0"
     inkscape:window-width="1600"
     inkscape:window-height="837"
     inkscape:window-x="-8"
     inkscape:window-y="-8"
     inkscape:window-maximized="1" />
  <metadata
     id="metadata5141">
    <rdf:RDF>
      <cc:Work
         rdf:about="">
        <dc:format>image/svg+xml</dc:format>
        <dc:type
           rdf:resource="http://purl.org/dc/dcmitype/StillImage" />
        <dc:title></dc:title>
      </cc:Work>
    </rdf:RDF>
  </metadata>
  <g
     inkscape:label="Layer 1"
     inkscape:groupmode="layer"
     id="layer1"
     transform="translate(1254.3126,870.08233)">
    <g
       transform="matrix(2.4077984,0,0,2.4077984,-50.410947,-1062.7297)"
       id="g9701">
      <g
         id="g3676"
         transform="matrix(1.25,0,0,-1.25,-390.296,277.831)">
        <path
           id="path3678"
           d="m 0,0 c 16.333,-1.75 29.386,-8.13 30.666,-21.833 1.089,-11.651 -7.792,-14.279 -7.792,-21.346 0,-4.629 8.259,-9.998 17.681,-20.55 2.792,0 7.497,-3.241 9.118,-3.241 1.215,0 1.931,1.528 3.933,1.528 1.636,0 3.92,-1.311 4.722,-1.991 0.964,0.647 1.775,0.834 2.962,0.834 1.533,0 5.045,-4.664 5.045,-7.035 0,-3.349 -2.192,-4.295 -3.749,-3.24 -0.249,-2.728 -4.339,-3.988 -6.155,-2.314 l -14.682,0.313 c -0.937,-0.786 -8.95,-5.1 -8,-3.75 0.792,1.125 -0.458,4.458 -2.458,4.583 -1.375,-0.541 -1.667,-0.666 -2.208,-1.221 -0.876,-0.195 -1.876,0.305 -2.334,1.013 0,1.875 -0.375,3.875 0.875,6.125 -2.125,3.25 -4.75,6.125 -8.25,7.75 -0.75,-4.625 -4.312,-6.563 -8.812,-5.188 1.843,1.375 2.593,3.657 2.812,6.688 -0.963,-3.152 -5.124,-3.958 -7.374,-2.708 2.666,2.083 2.979,4.178 4.25,6.666 C 8.416,-63 5,-64.333 2.333,-62.75 c 3.833,4.417 0.833,4.167 4.833,7.333 -4.601,2.839 -10.167,5.542 -9.917,11.417 1.363,2.336 5.318,0.091 5.875,2.75 1.125,5.375 -3.314,9.253 -5.281,10.562 -3.643,2.423 -9.391,2.313 -13.094,2.313 l -3.102,0 0.034,30.833 L 0,0 Z"
           inkscape:connector-curvature="0"
           style="fill:#f9c300" />
      </g>
      <g
         id="g3680"
         transform="matrix(1.25,0,0,-1.25,-390.296,277.831)">
        <path
           id="path3682"
           d="m 0,0 c 16.333,-1.75 29.386,-8.13 30.666,-21.833 1.089,-11.651 -7.792,-14.279 -7.792,-21.346 0,-4.629 8.259,-9.998 17.681,-20.55 2.792,0 7.497,-3.241 9.118,-3.241 1.215,0 1.931,1.528 3.933,1.528 1.636,0 3.92,-1.311 4.722,-1.991 0.964,0.647 1.775,0.834 2.962,0.834 1.533,0 5.045,-4.664 5.045,-7.035 0,-3.349 -2.192,-4.295 -3.749,-3.24 -0.249,-2.728 -4.339,-3.988 -6.155,-2.314 l -14.682,0.313 c -0.937,-0.786 -8.95,-5.1 -8,-3.75 0.792,1.125 -0.458,4.458 -2.458,4.583 -1.375,-0.541 -1.667,-0.666 -2.208,-1.221 -0.876,-0.195 -1.876,0.305 -2.334,1.013 0,1.875 -0.375,3.875 0.875,6.125 -2.125,3.25 -4.75,6.125 -8.25,7.75 -0.75,-4.625 -4.312,-6.563 -8.812,-5.188 1.843,1.375 2.593,3.657 2.812,6.688 -0.963,-3.152 -5.124,-3.958 -7.374,-2.708 2.666,2.083 2.979,4.178 4.25,6.666 C 8.416,-63 5,-64.333 2.333,-62.75 c 3.833,4.417 0.833,4.167 4.833,7.333 -4.601,2.839 -10.167,5.542 -9.917,11.417 1.363,2.336 5.318,0.091 5.875,2.75 1.125,5.375 -3.314,9.253 -5.281,10.562 -3.643,2.423 -9.391,2.313 -13.094,2.313 l -3.102,0 0.034,30.833 L 0,0 Z"
           inkscape:connector-curvature="0"
           style="fill:none;stroke:#000000;strokeWidth:0.75;stroke-linecap:round;stroke-linejoin:round" />
      </g>
      <g
         id="g3684"
         transform="matrix(1.25,0,0,-1.25,-360.496,111.851)">
        <path
           id="path3686"
           d="m 0,0 c 1.062,-1.554 1.748,-2.845 1.748,-5.049 0,-4.459 -4.276,-6.797 -8.933,-6.797 -8.5,0 -14.006,4.79 -21.361,4.79 -7.08,0 -10.235,-7.938 -10.744,-9.839 l 11.78,0 c 0,2.3 -0.712,5.811 2.093,5.811 3.435,0 10.007,-4.516 19.139,-4.516 4.04,0 11.262,2.218 11.262,9.062 C 4.984,-2.85 1.951,0.256 0,0"
           inkscape:connector-curvature="0"
           style="fill:#f9c300" />
      </g>
      <g
         id="g3688"
         transform="matrix(1.25,0,0,-1.25,-360.496,111.851)">
        <path
           id="path3690"
           d="m 0,0 c 1.062,-1.554 1.748,-2.845 1.748,-5.049 0,-4.459 -4.276,-6.797 -8.933,-6.797 -8.5,0 -14.006,4.79 -21.361,4.79 -7.08,0 -10.235,-7.938 -10.744,-9.839 l 11.78,0 c 0,2.3 -0.712,5.811 2.093,5.811 3.435,0 10.007,-4.516 19.139,-4.516 4.04,0 11.262,2.218 11.262,9.062 C 4.984,-2.85 1.951,0.256 0,0 Z"
           inkscape:connector-curvature="0"
           style="fill:none;stroke:#000000;strokeWidth:0.75;stroke-linecap:round;stroke-linejoin:round" />
      </g>
      <g
         id="g3692"
         transform="matrix(1.25,0,0,-1.25,-406.716,301.311)">
        <path
           id="path3694"
           d="M 0,0 C 6.596,0.025 12.956,-4.222 16.241,-8.49 10.945,-3.093 4.854,-0.829 -0.903,-1.11"
           inkscape:connector-curvature="0" />
      </g>
      <g
         id="g3696"
         transform="matrix(1.25,0,0,-1.25,-381.486,266.661)">
        <path
           id="path3698"
           d="m -33.709,-18.925 c 13.859,2.679 15.929,18.43 33.709,13.268 -15.178,-8.679 -12.799,-10.35 -21.846,-23.688 l -18.328,0 6.465,10.42 z"
           inkscape:connector-curvature="0"
           style="fill:#f9c300;stroke:#000000;strokeWidth:0.75;stroke-linecap:round;stroke-linejoin:round" />
      </g>
      <g
         id="g3700"
         transform="matrix(1.25,0,0,-1.25,-464.376,182.441)">
        <path
           id="path3702"
           d="m 0,0 c -3.236,-11.286 2.067,-18.411 9.625,-26.688 5.835,-6.39 10.001,-13.727 10,-22.375 0,-4.925 -2.376,-9.119 -5.375,-12.749 -2.999,-3.631 -6.722,-6.824 -10.312,-10 -3.591,-3.177 -7.103,-6.298 -9.501,-9.313 -2.397,-3.015 -3.625,-5.791 -3.625,-8.5 0,-4.845 3.378,-8.812 7.938,-8.812 10.507,0 9.226,15.338 13.014,23.459 6.355,13.622 24.166,22.117 24.166,33.583 0,3.876 0.042,7.073 -1.367,9.145 l 0,23.625 34.562,0 L 55.5,-68.937 c -5.786,-6.152 -9.067,-12.605 -9.687,-20.125 -0.926,-11.228 -2.175,-24.308 -7.675,-30.878 -7.925,-8.5 -19.933,-10.7 -23.375,-17.43 -3.922,-7.67 -4.25,-16.69 0.175,-24.25 1.55,0 4.262,-2 4.262,-2 0,0 1.876,0.81 4,0.81 1.93,0 4.013,-0.87 4.563,-1.56 0.784,1.45 2.059,1.53 3.187,1.43 1.5,-0.12 4.875,-2.25 5.813,-7.12 0.012,-6.53 -4.575,-5.44 -4.825,-2.56 -0.665,-5.88 -8.355,-6.3 -9.863,-2.75 -0.849,-6.71 -6.748,-5.49 -10.012,-2.19 -1.655,-0.35 -4.3,1.06 -5.3,2.87 -2.688,-2.5 -5.525,-4.06 -6.813,-2.5 1.438,5.57 -1.624,4.5 -1.687,6.32 -1.185,-1.7 -1.855,-2.84 -3.063,-1.69 -0.687,2.12 -1.122,8.94 0.875,14 -1.773,-0.38 -8.375,-0.38 -9.625,2.94 2.438,-0.07 5.25,2.37 7.125,3.31 -4.437,-2 -6.375,-0.31 -8.562,2.44 2.187,0.31 6.25,0.93 8.187,3.31 -5,-3.19 -7.562,-1.75 -8.812,1.56 1.062,0 3.062,-0.19 4.312,0.56 1.25,0.75 3.063,3.69 5.25,3.63 -0.136,2.7 -3.25,13.25 0.5,15.87 2.5,-3.62 7.5,-2.06 11.5,2.38 0.998,7.45 0.314,11.16 1.175,18.87 -2.604,-1.49 -5.715,-2.5 -9.313,-2.5 -4.351,0 -7.95,2.44 -10.5,5.5 -0.727,0.878 -1.368,1.821 -1.937,2.815 -2.021,-0.886 -1.638,-5.235 1.25,-4.435 0.501,-3.92 -5.007,-4.56 -6.875,-2.07 -1.378,1.84 -1.203,5.219 1.937,7.005 -4.818,-2.24 -9.812,0.711 -9.812,5.188 0,3.509 2.731,8.191 10.062,5.625 -2.462,-0.461 -3.062,-1.968 -3.062,-4.125 0.001,-1.658 1.485,-3.981 4.812,-3.125 -0.375,1.352 -0.625,2.749 -0.625,4.187 0,5.097 2.503,9.388 5.313,13.313 6.905,9.645 25.188,18.254 25.188,26.125 0,0.975 0.032,1.867 -0.313,2.687 -1.245,1.106 -2.532,1.307 -4.062,1.562 0.377,-0.558 0.562,-1.213 0.562,-1.937 0,-1.929 -1.57,-3.5 -3.5,-3.5 -1.929,0 -3.5,1.571 -3.5,3.5 0,1.429 0.679,3.009 1.875,3.875 -0.968,-0.031 -3.019,0.268 -4.125,1.187 -2.507,2.085 -2.038,6.152 -0.437,8.438 -3.576,0.676 -6.761,6.284 -2.813,10.625 C -9.759,-17.251 -6.08,-5.377 0,0"
           inkscape:connector-curvature="0"
           style="fill:#f9c300" />
      </g>
      <g
         id="g3704"
         transform="matrix(1.25,0,0,-1.25,-464.376,182.441)">
        <path
           id="path3706"
           d="m 0,0 c -3.236,-11.286 2.067,-18.411 9.625,-26.688 5.835,-6.39 10.001,-13.727 10,-22.375 0,-4.925 -2.376,-9.119 -5.375,-12.749 -2.999,-3.631 -6.722,-6.824 -10.312,-10 -3.591,-3.177 -7.103,-6.298 -9.501,-9.313 -2.397,-3.015 -3.625,-5.791 -3.625,-8.5 0,-4.845 3.378,-8.812 7.938,-8.812 10.507,0 9.226,15.338 13.014,23.459 6.355,13.622 24.166,22.117 24.166,33.583 0,3.876 0.042,7.073 -1.367,9.145 l 0,23.625 34.562,0 L 55.5,-68.937 c -5.786,-6.152 -9.067,-12.605 -9.687,-20.125 -0.926,-11.228 -2.175,-24.308 -7.675,-30.878 -7.925,-8.5 -19.933,-10.7 -23.375,-17.43 -3.922,-7.67 -4.25,-16.69 0.175,-24.25 1.55,0 4.262,-2 4.262,-2 0,0 1.876,0.81 4,0.81 1.93,0 4.013,-0.87 4.563,-1.56 0.784,1.45 2.059,1.53 3.187,1.43 1.5,-0.12 4.875,-2.25 5.813,-7.12 0.012,-6.53 -4.575,-5.44 -4.825,-2.56 -0.665,-5.88 -8.355,-6.3 -9.863,-2.75 -0.849,-6.71 -6.748,-5.49 -10.012,-2.19 -1.655,-0.35 -4.3,1.06 -5.3,2.87 -2.688,-2.5 -5.525,-4.06 -6.813,-2.5 1.438,5.57 -1.624,4.5 -1.687,6.32 -1.185,-1.7 -1.855,-2.84 -3.063,-1.69 -0.687,2.12 -1.122,8.94 0.875,14 -1.773,-0.38 -8.375,-0.38 -9.625,2.94 2.438,-0.07 5.25,2.37 7.125,3.31 -4.437,-2 -6.375,-0.31 -8.562,2.44 2.187,0.31 6.25,0.93 8.187,3.31 -5,-3.19 -7.562,-1.75 -8.812,1.56 1.062,0 3.062,-0.19 4.312,0.56 1.25,0.75 3.063,3.69 5.25,3.63 -0.136,2.7 -3.25,13.25 0.5,15.87 2.5,-3.62 7.5,-2.06 11.5,2.38 0.998,7.45 0.314,11.16 1.175,18.87 -2.604,-1.49 -5.715,-2.5 -9.313,-2.5 -4.351,0 -7.95,2.44 -10.5,5.5 -0.727,0.878 -1.368,1.821 -1.937,2.815 -2.021,-0.886 -1.638,-5.235 1.25,-4.435 0.501,-3.92 -5.007,-4.56 -6.875,-2.07 -1.378,1.84 -1.203,5.219 1.937,7.005 -4.818,-2.24 -9.812,0.711 -9.812,5.188 0,3.509 2.731,8.191 10.062,5.625 -2.462,-0.461 -3.062,-1.968 -3.062,-4.125 0.001,-1.658 1.485,-3.981 4.812,-3.125 -0.375,1.352 -0.625,2.749 -0.625,4.187 0,5.097 2.503,9.388 5.313,13.313 6.905,9.645 25.188,18.254 25.188,26.125 0,0.975 0.032,1.867 -0.313,2.687 -1.245,1.106 -2.532,1.307 -4.062,1.562 0.377,-0.558 0.562,-1.213 0.562,-1.937 0,-1.929 -1.57,-3.5 -3.5,-3.5 -1.929,0 -3.5,1.571 -3.5,3.5 0,1.429 0.679,3.009 1.875,3.875 -0.968,-0.031 -3.019,0.268 -4.125,1.187 -2.507,2.085 -2.038,6.152 -0.437,8.438 -3.576,0.676 -6.761,6.284 -2.813,10.625 C -9.759,-17.251 -6.08,-5.377 0,0 Z"
           inkscape:connector-curvature="0"
           style="fill:none;stroke:#000000;strokeWidth:0.75;stroke-linecap:round;stroke-linejoin:round" />
      </g>
      <g
         id="g3708"
         transform="matrix(1.25,0,0,-1.25,-409.696,232.751)">
        <path
           id="path3710"
           d="M 0,0 C -2.731,-10.06 -9.907,-11.523 -16.565,-20.31"
           inkscape:connector-curvature="0"
           style="fill:none;stroke:#000000;strokeWidth:0.75;stroke-linecap:round;stroke-linejoin:round" />
      </g>
      <g
         id="g3712"
         transform="matrix(1.25,0,0,-1.25,-441.966,271.161)">
        <path
           id="path3714"
           d="M 0,0 C -5.5,-9 -10.083,-23.25 -10.805,-32.709"
           inkscape:connector-curvature="0"
           style="fill:none;stroke:#000000;strokeWidth:0.75;stroke-linecap:round;stroke-linejoin:round" />
      </g>
      <g
         id="g3716"
         transform="matrix(1.25,0,0,-1.25,-364.136,166.481)">
        <path
           id="path3718"
           d="m 0,0 0,-23.586 23.789,0.371 c 0.968,1.203 -2.442,8.095 -1.554,10.132 0.215,-0.834 5.416,-3.334 9.333,-3.167 -2.417,2.333 -5.5,5.917 -6.333,10.583 3.083,-5.75 7.25,-6.666 10.083,-5.916 -1.916,3 -3.5,4.666 -4.957,8.733 0.618,-0.683 3.79,-4.983 7.29,-3.567 -3.333,2.417 -1.977,6.529 -4.333,10.5 0.662,1.248 0.681,3.121 2.024,4.595 l 0,9.113 11.205,0 c 3.364,0 6.426,-0.329 7.328,0.649 1.222,1.327 5.594,5.015 4.526,7.643 -0.396,0.98 -2.963,2.8 -3.833,3.75 -1.004,1.099 -2.328,3.329 -3.5,3.667 -1.205,0.348 -5.71,-1.359 -5.71,-1.359 0,0 -1.499,1.78 -2.407,1.851 -1.387,0.109 -4.072,-2.221 -4.072,-2.221 0,0 -1.53,1.714 -2.407,1.666 C 32.502,33.217 27.401,27 27.401,27 24.226,24.236 21.202,23.421 20.235,21.333 19.417,19.569 19.95,14.465 18.735,12.917 12.568,8.083 6.568,5.333 0,0"
           inkscape:connector-curvature="0"
           style="fill:#f9c300" />
      </g>
      <g
         id="g3720"
         transform="matrix(1.25,0,0,-1.25,-364.136,166.481)">
        <path
           id="path3722"
           d="m 0,0 0,-23.586 23.789,0.371 c 0.968,1.203 -2.442,8.095 -1.554,10.132 0.215,-0.834 5.416,-3.334 9.333,-3.167 -2.417,2.333 -5.5,5.917 -6.333,10.583 3.083,-5.75 7.25,-6.666 10.083,-5.916 -1.916,3 -3.5,4.666 -4.957,8.733 0.618,-0.683 3.79,-4.983 7.29,-3.567 -3.333,2.417 -1.977,6.529 -4.333,10.5 0.662,1.248 0.681,3.121 2.024,4.595 l 0,9.113 11.205,0 c 3.364,0 6.426,-0.329 7.328,0.649 1.222,1.327 5.594,5.015 4.526,7.643 -0.396,0.98 -2.963,2.8 -3.833,3.75 -1.004,1.099 -2.328,3.329 -3.5,3.667 -1.205,0.348 -5.71,-1.359 -5.71,-1.359 0,0 -1.499,1.78 -2.407,1.851 -1.387,0.109 -4.072,-2.221 -4.072,-2.221 0,0 -1.53,1.714 -2.407,1.666 C 32.502,33.217 27.401,27 27.401,27 24.226,24.236 21.202,23.421 20.235,21.333 19.417,19.569 19.95,14.465 18.735,12.917 12.568,8.083 6.568,5.333 0,0 Z"
           inkscape:connector-curvature="0"
           style="fill:none;stroke:#000000;strokeWidth:0.75;stroke-linecap:round;stroke-linejoin:round" />
      </g>
      <g
         id="g3724"
         transform="matrix(1.25,0,0,-1.25,-339.256,164.391)">
        <path
           id="path3726"
           d="M 0,0 C -2.333,-3.167 -3.25,-2.917 -5.166,-5.583"
           inkscape:connector-curvature="0"
           style="fill:none;stroke:#000000;strokeWidth:0.75;stroke-linecap:round;stroke-linejoin:round" />
      </g>
      <g
         id="g3728"
         transform="matrix(1.25,0,0,-1.25,-324.046,153.251)">
        <path
           id="path3730"
           d="M 0,0 C -2.333,-3.167 -5.917,-3.667 -7.833,-6.333"
           inkscape:connector-curvature="0"
           style="fill:none;stroke:#000000;strokeWidth:0.75;stroke-linecap:round;stroke-linejoin:round" />
      </g>
      <g
         id="g3732"
         transform="matrix(1.25,0,0,-1.25,-340.716,150.331)">
        <path
           id="path3734"
           d="M 0,0 C -1.167,-2.333 -2.417,-4.333 -4.25,-6.5"
           inkscape:connector-curvature="0"
           style="fill:none;stroke:#000000;strokeWidth:0.75;stroke-linecap:round;stroke-linejoin:round" />
      </g>
      <g
         id="g3736"
         transform="matrix(1.25,0,0,-1.25,-307.436,126.411)">
        <path
           id="path3738"
           d="M 0,0 C 0.871,-0.739 2.716,-2.06 3.46,-2.798 4.417,-3.749 6.229,-4.333 7.21,-5.381 8.65,-6.919 7.372,-8.305 7.22,-9.998 7.06,-11.796 5.47,-12.813 4.351,-13.145"
           inkscape:connector-curvature="0"
           style="fill:none;stroke:#000000;strokeWidth:0.75;stroke-linecap:round;stroke-linejoin:round" />
      </g>
      <g
         id="g3740"
         transform="matrix(1.25,0,0,-1.25,-315.766,126.411)">
        <path
           id="path3742"
           d="m 0,0 c 0.949,-0.831 2,-1.737 3.402,-2.526 1.204,-0.676 2.711,-1.225 4.096,-2.102 2.065,-1.31 1.866,-3.756 1.203,-5.647 -0.746,-2.128 -2.762,-4.012 -4.813,-3.888 -3.978,0.239 -4.812,1.02 -6.513,2.532 l -0.25,1"
           inkscape:connector-curvature="0"
           style="fill:none;stroke:#000000;strokeWidth:0.75;stroke-linecap:round;stroke-linejoin:round" />
      </g>
      <g
         id="g3744"
         transform="matrix(1.25,0,0,-1.25,-326.126,139.291)">
        <path
           id="path3746"
           d="m 0,0 c -3.5,-2.25 -2.261,-4.479 -2.169,-6.642 0.092,-2.125 3.155,-4.406 4.629,-4.906 1.475,-0.5 2.594,-0.005 3.61,0.555"
           inkscape:connector-curvature="0"
           style="fill:none;stroke:#000000;strokeWidth:0.75;stroke-linecap:round;stroke-linejoin:round" />
      </g>
      <g
         id="g3748"
         transform="matrix(1.25,0,0,-1.25,-386.586,219.561)">
        <path
           id="path3750"
           d="M 0,0 C -1.89,4.183 -8.075,7.968 -10.553,9.442"
           inkscape:connector-curvature="0"
           style="fill:none;stroke:#000000;strokeWidth:0.75;stroke-linecap:round;stroke-linejoin:round" />
      </g>
      <g
         id="g3752"
         transform="matrix(1.25,0,0,-1.25,-401.626,279.781)">
        <path
           id="path3754"
           d="m 0,0 c 8.059,13.573 34.319,9.921 42.213,30.032 -2.963,-7.282 -3.309,-8.157 -1.4,-12.719 1.437,-3.438 5.333,-6 11.666,-7.5 -2.847,1.517 -4.799,10.567 -1.479,14.5 4.268,5.056 7.837,13.472 10.467,18.309 4.168,7.665 3.119,18.009 -6.295,23.327 -6.962,11.578 -8.23,24.336 -20.55,28.697 -1.447,6.044 -10.309,14.164 -29.436,12.404 -3.407,1.38 -5.561,4.25 -4.352,9.72 -8.088,1.85 -13.735,10.73 -8.979,21.57 l -16.478,10.37 c -9.328,-2.76 -13.684,-9.1 -16.783,-15.68 -2.983,-6.33 -5.195,-15.01 -9.531,-17.63 1.75,-1.5 4.695,-0.45 6.874,1.46 -3.24,-3.2 -5.322,-7.13 -5.791,-11.3 -0.449,-3.99 -0.333,-5.1 -0.333,-9.414 0,-1.613 0.833,-7.917 4.25,-16.833 0.5,2 0.916,5.416 0.5,11.083 1.833,-8.083 -0.783,-11.451 -0.667,-17.333 0.083,-4.145 1.583,-8.917 1.583,-13.5 4,1.333 7,6.916 7.417,13.25 0.25,-4.334 -1.551,-9.278 -0.667,-13.5 1.489,-7.09 3.315,-6.783 3.834,-12.084 5.677,0.926 5.792,9.771 7.083,15.084 -1.232,-17.65 3.695,-14.396 2.417,-25.75 4.489,1.954 9.537,8.289 9.583,16.166 4.039,-4.306 6.803,-11.047 6.894,-17.328 14.916,3.783 8.023,16.415 14.071,28.697 5.16,-2.811 9.339,-6.015 12.034,-9.813 9.119,6.806 4.326,13.114 0,19.44"
           inkscape:connector-curvature="0"
           style="fill:#f9c300;stroke:#000000;strokeWidth:0.75;stroke-linecap:round;stroke-linejoin:round" />
      </g>
      <g
         id="g3756"
         transform="matrix(1.25,0,0,-1.25,-384.766,127.881)">
        <path
           id="path3758"
           d="M 0,0 C 0.652,-1.32 0.968,-2.517 1.029,-3.662 0.551,-4.002 -0.65,-4.145 -1.687,-4.32 -0.835,-2.963 -0.26,-1.532 0,0 M -0.453,8.022 C 0.491,7.56 1.613,7.086 1.975,6.624 1.591,5.543 0.918,4.453 -0.082,3.374 0.104,4.916 -0.021,6.479 -0.453,8.022"
           inkscape:connector-curvature="0"
           style="fill:#f9c300" />
      </g>
      <g
         id="g3760"
         transform="matrix(1.25,0,0,-1.25,-384.766,127.881)">
        <path
           id="path3762"
           d="M 0,0 C 0.652,-1.32 0.968,-2.517 1.029,-3.662 0.551,-4.002 -0.65,-4.145 -1.687,-4.32 -0.835,-2.963 -0.26,-1.532 0,0 Z M -0.453,8.022 C 0.491,7.56 1.613,7.086 1.975,6.624 1.591,5.543 0.918,4.453 -0.082,3.374 0.104,4.916 -0.021,6.479 -0.453,8.022 Z"
           inkscape:connector-curvature="0"
           style="fill:none;stroke:#000000;strokeWidth:0.75;stroke-linecap:round;stroke-linejoin:round" />
      </g>
      <g
         id="g3764"
         transform="matrix(1.25,0,0,-1.25,-353.486,195.961)">
        <path
           id="path3766"
           d="m 0,0 c 5.636,-5.747 10.647,-8.082 13.09,-12.802 1.357,-2.624 -0.339,-7.094 -2.723,-9.785"
           inkscape:connector-curvature="0"
           style="fill:none;stroke:#000000;strokeWidth:0.75;stroke-linecap:round;stroke-linejoin:round" />
      </g>
      <g
         id="g3768"
         transform="matrix(1.25,0,0,-1.25,-441.896,94.361)">
        <path
           id="path3770"
           d="M 0,0 C 0.906,-4.061 6.18,-4.681 9.998,-4.073 8.561,-4.477 7.205,-4.941 4.813,-4.628 c 1.674,-4.302 7.324,-4.64 10.553,-3.518 -1.803,-0.603 -3.841,-0.603 -6.294,-0.37 1.851,-5.35 9.072,-6.59 12.774,-3.333 -6.615,-10.739 1.832,-25.884 21.846,-20.921 0.433,-1.357 -0.37,-2.591 -2.407,-3.702 1.297,-0.975 1.84,-2.015 3.055,-1.389 1.135,0.585 2.123,1.389 1.945,2.13 0.587,-0.336 1.205,-0.581 2.035,-0.186 -1.412,1.173 -1.32,2.345 -1.295,3.518 0.559,1.078 0.666,2.382 0.741,3.703 -2.688,-0.321 -6.731,-1.262 -9.348,-1.262 -6.22,0 -9.629,4.108 -9.629,9.223 0,2.277 2.576,7.035 4.721,7.035 1.881,0 4.095,-2.255 7.486,-4.093 3.27,-1.773 7.055,-2.456 7.695,-3.868 0,0 5.079,5.763 3.518,9.442 1.123,0.346 1.378,1.851 1.48,2.684 -2.746,1.577 -7.158,4.923 -11.015,5.277 -0.64,1.35 -1.831,3.603 -3.425,4.258 -2.541,1.045 -7.485,0.36 -8.886,1.018 -2.418,1.135 -1.9,3.696 -7.313,4.721 C 18.694,6.564 15.959,5.251 12.959,4.443 7.773,3.046 5.943,-0.864 0,0"
           inkscape:connector-curvature="0"
           style="fill:#f9c300" />
      </g>
      <g
         id="g3772"
         transform="matrix(1.25,0,0,-1.25,-441.896,94.361)">
        <path
           id="path3774"
           d="M 0,0 C 0.906,-4.061 6.18,-4.681 9.998,-4.073 8.561,-4.477 7.205,-4.941 4.813,-4.628 c 1.674,-4.302 7.324,-4.64 10.553,-3.518 -1.803,-0.603 -3.841,-0.603 -6.294,-0.37 1.851,-5.35 9.072,-6.59 12.774,-3.333 -6.615,-10.739 1.832,-25.884 21.846,-20.921 0.433,-1.357 -0.37,-2.591 -2.407,-3.702 1.297,-0.975 1.84,-2.015 3.055,-1.389 1.135,0.585 2.123,1.389 1.945,2.13 0.587,-0.336 1.205,-0.581 2.035,-0.186 -1.412,1.173 -1.32,2.345 -1.295,3.518 0.559,1.078 0.666,2.382 0.741,3.703 -2.688,-0.321 -6.731,-1.262 -9.348,-1.262 -6.22,0 -9.629,4.108 -9.629,9.223 0,2.277 2.576,7.035 4.721,7.035 1.881,0 4.095,-2.255 7.486,-4.093 3.27,-1.773 7.055,-2.456 7.695,-3.868 0,0 5.079,5.763 3.518,9.442 1.123,0.346 1.378,1.851 1.48,2.684 -2.746,1.577 -7.158,4.923 -11.015,5.277 -0.64,1.35 -1.831,3.603 -3.425,4.258 -2.541,1.045 -7.485,0.36 -8.886,1.018 -2.418,1.135 -1.9,3.696 -7.313,4.721 C 18.694,6.564 15.959,5.251 12.959,4.443 7.773,3.046 5.943,-0.864 0,0 Z"
           inkscape:connector-curvature="0"
           style="fill:none;stroke:#000000;strokeWidth:0.75;stroke-linecap:round;stroke-linejoin:round" />
      </g>
      <g
         id="g3776"
         transform="matrix(1.25,0,0,-1.25,-388.896,99.691)">
        <path
           id="path3778"
           d="m 0,0 c -4.908,-0.471 -9.578,-1.851 -15.922,-1.851 -5.488,0 -11.428,5.703 -12.774,10.738"
           inkscape:connector-curvature="0"
           style="fill:none;stroke:#000000;strokeWidth:0.75;stroke-linecap:round;stroke-linejoin:round" />
      </g>
      <g
         id="g3780"
         transform="matrix(1.25,0,0,-1.25,-414.586,109.171)">
        <path
           id="path3782"
           d="M 0,0 C -4.874,-7.914 -1.57,-18.22 8.516,-21.109 -2.992,-18.814 -6.02,-6.802 0,0"
           inkscape:connector-curvature="0" />
      </g>
      <g
         id="g3784"
         transform="matrix(1.25,0,0,-1.25,-392.366,101.541)">
        <path
           id="path3786"
           d="M 0,0 C -3.663,4.275 -6.441,-0.37 -12.589,-0.37 -7.467,-1.373 -3.641,-6.795 0,0"
           inkscape:connector-curvature="0"
           style="fill:#f9c300" />
      </g>
      <g
         id="g3788"
         transform="matrix(1.25,0,0,-1.25,-392.366,101.541)">
        <path
           id="path3790"
           d="M 0,0 C -3.663,4.275 -6.441,-0.37 -12.589,-0.37 -7.467,-1.373 -3.641,-6.795 0,0 Z"
           inkscape:connector-curvature="0"
           style="fill:none;stroke:#000000;strokeWidth:0.75;stroke-linecap:round;stroke-linejoin:round" />
      </g>
      <g
         id="g3792"
         transform="matrix(1.25,0,0,-1.25,-414.586,89.041)">
        <path
           id="path3794"
           d="m 0,0 c -1.489,-2.861 -6.423,-3.37 -9.441,-0.556 0.16,2.827 1.506,5.073 3.146,7.406 C -4.154,5.94 -0.68,2.612 0,0"
           inkscape:connector-curvature="0"
           style="fill:#f9c300" />
      </g>
      <g
         id="g3796"
         transform="matrix(1.25,0,0,-1.25,-414.586,89.041)">
        <path
           id="path3798"
           d="m 0,0 c -1.489,-2.861 -6.423,-3.37 -9.441,-0.556 0.16,2.827 1.506,5.073 3.146,7.406 C -4.154,5.94 -0.68,2.612 0,0 Z"
           inkscape:connector-curvature="0"
           style="fill:none;stroke:#000000;strokeWidth:0.75;stroke-linecap:round;stroke-linejoin:round" />
      </g>
      <g
         id="g3800"
         transform="matrix(1.25,0,0,-1.25,-376.746,109.641)">
        <path
           id="path3802"
           d="M 0,0 C -3.265,0.435 -5.101,3.154 -9.164,5.091"
           inkscape:connector-curvature="0"
           style="fill:none;stroke:#000000;strokeWidth:0.75;stroke-linecap:round;stroke-linejoin:round" />
      </g>
      <g
         id="g3804"
         transform="matrix(1.25,0,0,-1.25,-424.766,116.651)">
        <path
           id="path3806"
           d="m 0,0 c -1.459,-6.388 2.21,-13.747 6.323,-17.318 5.324,-4.623 11.883,-6.135 17.375,-6.135 C 9.212,-24.602 -3.352,-13.972 0,0"
           inkscape:connector-curvature="0" />
      </g>
      <g
         id="g3808"
         transform="matrix(1.25,0,0,-1.25,-358.346,161.481)">
        <path
           id="path3810"
           d="M 0,0 C -2.922,0.874 -10.977,3.167 -13.644,7"
           inkscape:connector-curvature="0"
           style="fill:none;stroke:#000000;strokeWidth:0.75;stroke-linecap:round;stroke-linejoin:round" />
      </g>
      <g
         id="g3812"
         transform="matrix(1.25,0,0,-1.25,-332.656,197.461)">
        <path
           id="path3814"
           d="M 0,0 C -6.596,2.938 -11.533,7.536 -15.922,12.682"
           inkscape:connector-curvature="0"
           style="fill:none;stroke:#000000;strokeWidth:0.75;stroke-linecap:round;stroke-linejoin:round" />
      </g>
      <g
         id="g3816"
         transform="matrix(1.25,0,0,-1.25,-377.556,177.211)">
        <path
           id="path3818"
           d="M 0,0 C -9.662,1.153 -16.965,11.099 -27.4,15.551 -17.798,13.505 -10.032,3.189 0,0"
           inkscape:connector-curvature="0" />
      </g>
      <g
         id="g3820"
         transform="matrix(1.25,0,0,-1.25,-414.116,175.591)">
        <path
           id="path3822"
           d="M 0,0 C -5.088,3.363 -16.4,10.451 -19.255,14.996 -13.742,9.93 -5.175,5.319 0,0"
           inkscape:connector-curvature="0" />
      </g>
      <g
         id="g3824"
         transform="matrix(1.25,0,0,-1.25,-438.996,111.141)">
        <path
           id="path3826"
           d="m 0,0 c -1.009,-2.877 -3.039,-5.156 -4.398,-7.707 -1.901,-3.564 -3.3,-6.465 -3.3,-8.957 0,-6.882 6.819,-9.77 11.678,-13.144 -3.095,3.285 -10.248,5.93 -10.248,13.328 0,5.45 5.207,11.704 6.268,16.48"
           inkscape:connector-curvature="0" />
      </g>
      <g
         id="g3828"
         transform="matrix(1.25,0,0,-1.25,-393.926,199.721)">
        <path
           id="path3830"
           d="M 0,0 C -3.596,2.216 -5.654,7.74 -7.844,10.428"
           inkscape:connector-curvature="0"
           style="fill:none;stroke:#000000;strokeWidth:0.75;stroke-linecap:round;stroke-linejoin:round" />
      </g>
      <g
         id="g3832"
         transform="matrix(1.25,0,0,-1.25,-404.056,108.601)">
        <path
           id="path3834"
           d="M 0,0 C -2.748,-1.624 -3.809,-4.186 -4.35,-7.035"
           inkscape:connector-curvature="0"
           style="fill:none;stroke:#000000;strokeWidth:0.75;stroke-linecap:round;stroke-linejoin:round" />
      </g>
      <g
         id="g3836"
         transform="matrix(1.25,0,0,-1.25,-358.876,238.481)">
        <path
           id="path3838"
           d="M 0,0 C -1.796,-8.7 -9.001,-15.309 -17.327,-19.799 -8.364,-13.49 -2.19,-6.611 -1.144,0.293"
           inkscape:connector-curvature="0" />
      </g>
      <g
         id="g3840"
         transform="matrix(1.25,0,0,-1.25,-386.586,219.681)">
        <path
           id="path3842"
           d="m 0,0 c -0.705,-1.155 -2.09,-1.95 -4.258,-1.759 1.018,-3.472 6.11,-6.457 8.701,-8.701 -1.076,-0.932 -2.228,-1.831 -4.999,-2.037 1.298,-0.369 1.97,-1.052 4.628,-0.74 -1.603,-1.68 -3.209,-2.224 -4.812,-2.963 4.151,-0.295 7.148,2.136 9.256,4.444 -2.287,-2.487 -4.459,-5.276 -4.233,-8.057 2.283,3.46 6.776,1.942 8.676,6.576 -2.062,-5.428 -10.06,-2.962 -8.887,-10.368 4.272,4.422 14.566,-2.778 15.367,8.146 8.603,-0.976 13.86,-2.545 22.032,-7.961 -1.546,-8.909 1.166,-9.363 2.431,-11.351 0.813,-6.25 5.715,-9.937 8.938,-9.937 2.116,1.771 1.615,2.613 0.937,5.312 2.17,1.276 1.205,4.795 -0.187,7.125 2.272,2.531 2.031,4.896 0.375,6.5 2.845,3.105 -1.25,14.063 -1.25,14.063 0,0 4.562,1 1.187,8.437 -0.579,1.275 -6.013,-2.587 -8.187,-2.062 -5.546,3.163 -8.405,4.07 -11.125,5.375 -1.08,0.518 -3.471,3.146 -4.875,3.75 -3.456,1.487 -5.836,7.206 -9.535,10.001"
           inkscape:connector-curvature="0"
           style="fill:#f9c300;stroke:#000000;strokeWidth:0.75;stroke-linecap:round;stroke-linejoin:round" />
      </g>
      <g
         id="g3844"
         transform="matrix(1.25,0,0,-1.25,-323.426,265.331)">
        <path
           id="path3846"
           d="M 0,0 C -2.261,0.479 -2.489,0.204 -3.938,1.75 -5.25,3 -5.098,4.583 -4.613,6.991"
           inkscape:connector-curvature="0"
           style="fill:none;stroke:#000000;strokeWidth:0.75;stroke-linecap:round;stroke-linejoin:round" />
      </g>
      <g
         id="g3848"
         transform="matrix(1.25,0,0,-1.25,-319.596,260.021)">
        <path
           id="path3850"
           d="M 0,0 C -1.498,0.247 -5.205,1.417 -6.688,3.875 -8.739,7.274 -7.325,7.638 -8.625,10"
           inkscape:connector-curvature="0"
           style="fill:none;stroke:#000000;strokeWidth:0.75;stroke-linecap:round;stroke-linejoin:round" />
      </g>
      <g
         id="g3852"
         transform="matrix(1.25,0,0,-1.25,-334.856,249.071)">
        <path
           id="path3854"
           d="M 0,0 C 1.104,4.667 2.263,9.384 0,10.923"
           inkscape:connector-curvature="0"
           style="fill:none;stroke:#000000;strokeWidth:0.75;stroke-linecap:round;stroke-linejoin:round" />
      </g>
      <g
         id="g3856"
         transform="matrix(1.25,0,0,-1.25,-339.486,240.511)">
        <path
           id="path3858"
           d="M 0,0 C -6.837,3.841 -13.251,6.556 -19.348,8.423"
           inkscape:connector-curvature="0"
           style="fill:none;stroke:#000000;strokeWidth:0.75;stroke-linecap:round;stroke-linejoin:round" />
      </g>
      <g
         id="g3860"
         transform="matrix(1.25,0,0,-1.25,-376.166,220.841)">
        <path
           id="path3862"
           d="M 0,0 C 1.055,-1.26 2.216,-2.412 3.518,-3.425"
           inkscape:connector-curvature="0"
           style="fill:none;stroke:#000000;strokeWidth:0.75;stroke-linecap:round;stroke-linejoin:round" />
      </g>
      <g
         id="g3864"
         transform="matrix(1.25,0,0,-1.25,-416.616,313.691)">
        <path
           id="path3866"
           d="m 0,0 c -3.2,-5.266 1.05,-13.202 -8.957,-15.907 l -0.207,-0.107 C -0.202,-12.497 -5.352,-5.294 0,0"
           inkscape:connector-curvature="0" />
      </g>
      <g
         id="g3868"
         transform="matrix(1.25,0,0,-1.25,-463.106,361.581)">
        <path
           id="path3870"
           d="M 0,0 C -0.497,1.54 -1.035,4.856 -0.767,5.835 -0.277,7.622 0.938,8 3.188,10.313 0.438,8.438 -2.433,8.328 -1.665,6.44"
           inkscape:connector-curvature="0"
           style="fill:none;stroke:#000000;strokeWidth:0.75;stroke-linecap:round;stroke-linejoin:round" />
      </g>
      <g
         id="g3872"
         transform="matrix(1.25,0,0,-1.25,-374.256,290.121)">
        <path
           id="path3874"
           d="M 0,0 C 10.393,-2.835 12.27,-6.876 10.383,-17.791 11.264,-8.794 10.461,-4.282 0,0"
           inkscape:connector-curvature="0" />
      </g>
      <g
         id="g3876"
         transform="matrix(1.25,0,0,-1.25,-464.636,225.201)">
        <path
           id="path3878"
           d="M 0,0 C 2.49,-0.803 12.776,-0.699 15.695,-11.246"
           inkscape:connector-curvature="0"
           style="fill:none;stroke:#000000;strokeWidth:0.75;stroke-linecap:round;stroke-linejoin:round" />
      </g>
      <g
         id="g3880"
         transform="matrix(1.25,0,0,-1.25,-467.686,212.081)">
        <path
           id="path3882"
           d="M 0,0 C 5.454,-5.401 16.069,-8.271 19.851,-20.291"
           inkscape:connector-curvature="0"
           style="fill:none;stroke:#000000;strokeWidth:0.75;stroke-linecap:round;stroke-linejoin:round" />
      </g>
      <g
         id="g3884"
         transform="matrix(1.25,0,0,-1.25,-436.786,401.661)">
        <path
           id="path3886"
           d="M 0,0 C -0.32,2.655 -0.25,3.125 -1.5,4.875 -2.378,6.104 -5,7.375 -5.813,7.75"
           inkscape:connector-curvature="0"
           style="fill:none;stroke:#000000;strokeWidth:0.75;stroke-linecap:round;stroke-linejoin:round" />
      </g>
      <g
         id="g3888"
         transform="matrix(1.25,0,0,-1.25,-424.416,398.281)">
        <path
           id="path3890"
           d="M 0,0 C 0,2.941 -3.138,6.729 -4.203,8.298"
           inkscape:connector-curvature="0"
           style="fill:none;stroke:#000000;strokeWidth:0.75;stroke-linecap:round;stroke-linejoin:round" />
      </g>
      <g
         id="g3892"
         transform="matrix(1.25,0,0,-1.25,-322.586,369.391)">
        <path
           id="path3894"
           d="m 0,0 c 1.083,-1 2.666,-2.333 2.792,-5.481 0.119,-2.981 -3.205,-6.011 -6.406,-6.011 -4.178,0 -9.136,2.409 -8.97,8.575"
           inkscape:connector-curvature="0"
           style="fill:#f9c300;stroke:#000000;strokeWidth:0.75;stroke-linecap:round;stroke-linejoin:round" />
      </g>
      <g
         id="g3896"
         transform="matrix(1.25,0,0,-1.25,-449.236,404.471)">
        <path
           id="path3898"
           d="M 0,0 C -1.137,1.122 -2.017,2.993 -2.406,4.351"
           inkscape:connector-curvature="0"
           style="fill:none;stroke:#000000;strokeWidth:0.75;stroke-linecap:round;stroke-linejoin:round" />
      </g>
      <g
         id="g3900"
         transform="matrix(1.25,0,0,-1.25,-312.066,373.951)">
        <path
           id="path3902"
           d="M 0,0 C 0.229,2.869 -1.493,7.455 -4.281,9.482"
           inkscape:connector-curvature="0"
           style="fill:none;stroke:#000000;strokeWidth:0.75;stroke-linecap:round;stroke-linejoin:round" />
      </g>
      <g
         id="g3904"
         transform="matrix(1.25,0,0,-1.25,-381.806,325.751)">
        <path
           id="path3906"
           d="m 0,0 c 1.05,-5.389 -0.793,-7.002 -2.5,-8.794 2.429,-6.196 6.284,-5.064 11.126,-9.201 -3.84,3.893 -7.482,3.975 -9.87,9.007 C -0.102,-7.934 1.953,-5.858 0,0"
           inkscape:connector-curvature="0" />
      </g>
      <g
         id="g3908"
         transform="matrix(1.25,0,0,-1.25,-319.946,251.401)">
        <path
           id="path3910"
           d="M 0,0 C 1.958,-1.296 3.339,-3.354 3.538,-5.02 2.181,-5.592 -0.392,-4.928 -1.934,-3.785 -2.743,-1.626 -1.591,0.054 0,0"
           inkscape:connector-curvature="0"
           style="fill:#f9c300" />
      </g>
      <g
         id="g3912"
         transform="matrix(1.25,0,0,-1.25,-319.946,251.401)">
        <path
           id="path3914"
           d="M 0,0 C 1.958,-1.296 3.339,-3.354 3.538,-5.02 2.181,-5.592 -0.392,-4.928 -1.934,-3.785 -2.743,-1.626 -1.591,0.054 0,0 Z"
           inkscape:connector-curvature="0"
           style="fill:none;stroke:#000000;strokeWidth:0.75;stroke-linecap:round;stroke-linejoin:round" />
      </g>
      <g
         id="g3916"
         transform="matrix(1.25,0,0,-1.25,-320.356,260.201)">
        <path
           id="path3918"
           d="M 0,0 C 1.958,-1.297 3.297,-3.354 3.496,-5.02 2.139,-5.592 -0.391,-4.929 -1.934,-3.785 -2.743,-1.627 -1.592,0.053 0,0"
           inkscape:connector-curvature="0"
           style="fill:#f9c300" />
      </g>
      <g
         id="g3920"
         transform="matrix(1.25,0,0,-1.25,-320.356,260.201)">
        <path
           id="path3922"
           d="M 0,0 C 1.958,-1.297 3.297,-3.354 3.496,-5.02 2.139,-5.592 -0.391,-4.929 -1.934,-3.785 -2.743,-1.627 -1.592,0.053 0,0 Z"
           inkscape:connector-curvature="0"
           style="fill:none;stroke:#000000;strokeWidth:0.75;stroke-linecap:round;stroke-linejoin:round" />
      </g>
      <g
         id="g3924"
         transform="matrix(1.25,0,0,-1.25,-320.486,268.861)">
        <path
           id="path3926"
           d="M 0,0 C 0.187,-0.018 0.39,-0.053 0.575,-0.124 2.002,-1.99 2.619,-4.367 2.262,-6.007 0.791,-6.104 -1.427,-4.672 -2.51,-3.086 -2.561,-1.069 -1.311,0.118 0,0"
           inkscape:connector-curvature="0"
           style="fill:#f9c300" />
      </g>
      <g
         id="g3928"
         transform="matrix(1.25,0,0,-1.25,-320.486,268.861)">
        <path
           id="path3930"
           d="M 0,0 C 0.187,-0.018 0.39,-0.053 0.575,-0.124 2.002,-1.99 2.619,-4.367 2.262,-6.007 0.791,-6.104 -1.427,-4.672 -2.51,-3.086 -2.561,-1.069 -1.311,0.118 0,0 Z"
           inkscape:connector-curvature="0"
           style="fill:none;stroke:#000000;strokeWidth:0.75;stroke-linecap:round;stroke-linejoin:round" />
      </g>
      <g
         id="g3932"
         transform="matrix(1.25,0,0,-1.25,-319.686,229.511)">
        <path
           id="path3934"
           d="M 0,0 C 1.252,0.322 5.274,4.188 4.983,3.588 3.887,4.573 1.239,4.786 -0.592,4.208 -2.062,2.432 -1.521,0.468 0,0"
           inkscape:connector-curvature="0"
           style="fill:#f9c300" />
      </g>
      <g
         id="g3936"
         transform="matrix(1.25,0,0,-1.25,-319.686,229.511)">
        <path
           id="path3938"
           d="M 0,0 C 1.252,0.322 5.274,4.188 4.983,3.588 3.887,4.573 1.239,4.786 -0.592,4.208 -2.062,2.432 -1.521,0.468 0,0 Z"
           inkscape:connector-curvature="0"
           style="fill:none;stroke:#000000;strokeWidth:0.75;stroke-linecap:round;stroke-linejoin:round" />
      </g>
      <g
         id="g3940"
         transform="matrix(1.25,0,0,-1.25,-469.096,398.721)">
        <path
           id="path3942"
           d="M 0,0 C -0.363,-3.883 -0.276,-5.169 2.605,-8.411 3.23,-6.286 4.512,-2.103 4.299,-0.317 3.277,1.387 1.252,1.597 0,0"
           inkscape:connector-curvature="0"
           style="fill:#f9c300" />
      </g>
      <g
         id="g3944"
         transform="matrix(1.25,0,0,-1.25,-469.096,398.721)">
        <path
           id="path3946"
           d="M 0,0 C -0.363,-3.883 -0.276,-5.169 2.605,-8.411 3.23,-6.286 4.512,-2.103 4.299,-0.317 3.277,1.387 1.252,1.597 0,0 Z"
           inkscape:connector-curvature="0"
           style="fill:none;stroke:#000000;strokeWidth:0.75;stroke-linecap:round;stroke-linejoin:round" />
      </g>
      <g
         id="g3948"
         transform="matrix(1.25,0,0,-1.25,-430.066,397.131)">
        <path
           id="path3950"
           d="m 0,0 c -0.25,-0.563 -1.857,-1.999 -2.313,-3.125 0.47,-2.436 0.5,-5.125 0.75,-7.188 2.501,1.063 4.933,6.94 4.126,8.839 C 1.759,-0.731 0.875,-0.25 0,0"
           inkscape:connector-curvature="0"
           style="fill:#f9c300" />
      </g>
      <g
         id="g3952"
         transform="matrix(1.25,0,0,-1.25,-430.066,397.131)">
        <path
           id="path3954"
           d="m 0,0 c -0.25,-0.563 -1.857,-1.999 -2.313,-3.125 0.47,-2.436 0.5,-5.125 0.75,-7.188 2.501,1.063 4.933,6.94 4.126,8.839 C 1.759,-0.731 0.875,-0.25 0,0 Z"
           inkscape:connector-curvature="0"
           style="fill:none;stroke:#000000;strokeWidth:0.75;stroke-linecap:round;stroke-linejoin:round" />
      </g>
      <g
         id="g3956"
         transform="matrix(1.25,0,0,-1.25,-421.086,396.411)">
        <path
           id="path3958"
           d="m 0,0 c -0.21,-0.472 -1.56,-1.678 -1.94,-2.623 0.393,-2.044 0.419,-4.3 0.629,-6.031 2.098,0.891 4.139,5.823 3.461,7.418 C 1.476,-0.614 0.734,-0.209 0,0"
           inkscape:connector-curvature="0"
           style="fill:#f9c300" />
      </g>
      <g
         id="g3960"
         transform="matrix(1.25,0,0,-1.25,-421.086,396.411)">
        <path
           id="path3962"
           d="m 0,0 c -0.21,-0.472 -1.56,-1.678 -1.94,-2.623 0.393,-2.044 0.419,-4.3 0.629,-6.031 2.098,0.891 4.139,5.823 3.461,7.418 C 1.476,-0.614 0.734,-0.209 0,0 Z"
           inkscape:connector-curvature="0"
           style="fill:none;stroke:#000000;strokeWidth:0.75;stroke-linecap:round;stroke-linejoin:round" />
      </g>
      <g
         id="g3964"
         transform="matrix(1.25,0,0,-1.25,-291.216,135.361)">
        <path
           id="path3966"
           d="m 0,0 c 1.962,-1.792 2.45,-5.172 0.682,-7.24 -1.027,1.728 -3.084,2.982 -3.965,4.541 C -3.163,-0.396 -1.438,0.685 0,0"
           inkscape:connector-curvature="0"
           style="fill:#f9c300" />
      </g>
      <g
         id="g3968"
         transform="matrix(1.25,0,0,-1.25,-291.216,135.361)">
        <path
           id="path3970"
           d="m 0,0 c 1.962,-1.792 2.45,-5.172 0.682,-7.24 -1.027,1.728 -3.084,2.982 -3.965,4.541 C -3.163,-0.396 -1.438,0.685 0,0 Z"
           inkscape:connector-curvature="0"
           style="fill:none;stroke:#000000;strokeWidth:0.75;stroke-linecap:round;stroke-linejoin:round" />
      </g>
      <g
         id="g3972"
         transform="matrix(1.25,0,0,-1.25,-319.256,148.861)">
        <path
           id="path3974"
           d="M 0,0 C 1.56,-1.756 2.365,-4.098 2.129,-5.76 0.67,-5.964 -1.645,-4.662 -2.842,-3.161 -3.068,-0.866 -1.523,0.461 0,0"
           inkscape:connector-curvature="0"
           style="fill:#f9c300" />
      </g>
      <g
         id="g3976"
         transform="matrix(1.25,0,0,-1.25,-319.256,148.861)">
        <path
           id="path3978"
           d="M 0,0 C 1.56,-1.756 2.365,-4.098 2.129,-5.76 0.67,-5.964 -1.645,-4.662 -2.842,-3.161 -3.068,-0.866 -1.523,0.461 0,0 Z"
           inkscape:connector-curvature="0"
           style="fill:none;stroke:#000000;strokeWidth:0.75;stroke-linecap:round;stroke-linejoin:round" />
      </g>
      <g
         id="g3980"
         transform="matrix(1.25,0,0,-1.25,-297.746,135.341)">
        <path
           id="path3982"
           d="m 0,0 c 1.98,-1.77 2.509,-5.144 0.764,-7.231 -1.047,1.715 -3.118,2.946 -4.017,4.495 C -3.16,-0.433 -1.445,0.668 0,0"
           inkscape:connector-curvature="0"
           style="fill:#f9c300" />
      </g>
      <g
         id="g3984"
         transform="matrix(1.25,0,0,-1.25,-297.746,135.341)">
        <path
           id="path3986"
           d="m 0,0 c 1.98,-1.77 2.509,-5.144 0.764,-7.231 -1.047,1.715 -3.118,2.946 -4.017,4.495 C -3.16,-0.433 -1.445,0.668 0,0 Z"
           inkscape:connector-curvature="0"
           style="fill:none;stroke:#000000;strokeWidth:0.75;stroke-linecap:round;stroke-linejoin:round" />
      </g>
      <g
         id="g3988"
         transform="matrix(1.25,0,0,-1.25,-305.296,136.691)">
        <path
           id="path3990"
           d="m 0,0 c 2.207,-1.478 3.197,-4.746 1.758,-7.056 -1.274,1.555 -3.495,2.487 -4.6,3.895 C -3.068,-0.866 -1.523,0.461 0,0"
           inkscape:connector-curvature="0"
           style="fill:#f9c300" />
      </g>
      <g
         id="g3992"
         transform="matrix(1.25,0,0,-1.25,-305.296,136.691)">
        <path
           id="path3994"
           d="m 0,0 c 2.207,-1.478 3.197,-4.746 1.758,-7.056 -1.274,1.555 -3.495,2.487 -4.6,3.895 C -3.068,-0.866 -1.523,0.461 0,0 Z"
           inkscape:connector-curvature="0"
           style="fill:none;stroke:#000000;strokeWidth:0.75;stroke-linecap:round;stroke-linejoin:round" />
      </g>
      <g
         id="g3996"
         transform="matrix(1.25,0,0,-1.25,-327.066,373.301)">
        <path
           id="path3998"
           d="m 0,0 c -0.292,-1.542 -1.984,-2.14 -2.625,-3.497 0.43,-3.16 1.863,-6.01 4.34,-7.671 2.159,2.017 2.914,6.159 2.008,8.655 C 2.695,-1.459 1.042,-0.917 0,0"
           inkscape:connector-curvature="0"
           style="fill:#f9c300" />
      </g>
      <g
         id="g4000"
         transform="matrix(1.25,0,0,-1.25,-327.066,373.301)">
        <path
           id="path4002"
           d="m 0,0 c -0.292,-1.542 -1.984,-2.14 -2.625,-3.497 0.43,-3.16 1.863,-6.01 4.34,-7.671 2.159,2.017 2.914,6.159 2.008,8.655 C 2.695,-1.459 1.042,-0.917 0,0 Z"
           inkscape:connector-curvature="0"
           style="fill:none;stroke:#000000;strokeWidth:0.75;stroke-linecap:round;stroke-linejoin:round" />
      </g>
      <g
         id="g4004"
         transform="matrix(1.25,0,0,-1.25,-443.026,399.901)">
        <path
           id="path4006"
           d="m 0,0 c -0.815,-1.222 -1.69,-1.823 -2.236,-2.979 0.366,-2.693 1.588,-5.121 3.697,-6.536 1.84,1.718 2.483,5.247 1.711,7.374 C 2.747,-1.16 1.935,-0.097 0,0"
           inkscape:connector-curvature="0"
           style="fill:#f9c300" />
      </g>
      <g
         id="g4008"
         transform="matrix(1.25,0,0,-1.25,-443.026,399.901)">
        <path
           id="path4010"
           d="m 0,0 c -0.815,-1.222 -1.69,-1.823 -2.236,-2.979 0.366,-2.693 1.588,-5.121 3.697,-6.536 1.84,1.718 2.483,5.247 1.711,7.374 C 2.747,-1.16 1.935,-0.097 0,0 Z"
           inkscape:connector-curvature="0"
           style="fill:none;stroke:#000000;strokeWidth:0.75;stroke-linecap:round;stroke-linejoin:round" />
      </g>
      <g
         id="g4012"
         transform="matrix(1.25,0,0,-1.25,-351.446,373.771)">
        <path
           id="path4014"
           d="M 0,0 C 0.292,-0.75 3.05,-2.08 4.348,-3.497 2.666,-6.375 2.041,-7.75 1.041,-10.5 -1.118,-8.483 -2.906,-5.009 -2,-2.513 -1.241,-1.735 -0.25,-0.875 0,0"
           inkscape:connector-curvature="0"
           style="fill:#f9c300" />
      </g>
      <g
         id="g4016"
         transform="matrix(1.25,0,0,-1.25,-351.446,373.771)">
        <path
           id="path4018"
           d="M 0,0 C 0.292,-0.75 3.05,-2.08 4.348,-3.497 2.666,-6.375 2.041,-7.75 1.041,-10.5 -1.118,-8.483 -2.906,-5.009 -2,-2.513 -1.241,-1.735 -0.25,-0.875 0,0 Z"
           inkscape:connector-curvature="0"
           style="fill:none;stroke:#000000;strokeWidth:0.75;stroke-linecap:round;stroke-linejoin:round" />
      </g>
      <g
         id="g4020"
         transform="matrix(1.25,0,0,-1.25,-318.166,374.211)">
        <path
           id="path4022"
           d="M 0,0 C 0.416,-2.437 2.372,-3.806 3.51,-5.321 5.024,-3.485 5.104,-0.734 4.202,0.827 2.778,2.19 0.783,1.859 0,0"
           inkscape:connector-curvature="0"
           style="fill:#f9c300" />
      </g>
      <g
         id="g4024"
         transform="matrix(1.25,0,0,-1.25,-318.166,374.211)">
        <path
           id="path4026"
           d="M 0,0 C 0.416,-2.437 2.372,-3.806 3.51,-5.321 5.024,-3.485 5.104,-0.734 4.202,0.827 2.778,2.19 0.783,1.859 0,0 Z"
           inkscape:connector-curvature="0"
           style="fill:none;stroke:#000000;strokeWidth:0.75;stroke-linecap:round;stroke-linejoin:round" />
      </g>
      <g
         id="g4028"
         transform="matrix(1.25,0,0,-1.25,-311.416,371.961)">
        <path
           id="path4030"
           d="M 0,0 C 1.146,-1.952 3.233,-2.484 3.799,-4.019 4.766,-2.238 4.297,0.762 2.586,1.704 1.3,2.081 0.219,1.277 0,0"
           inkscape:connector-curvature="0"
           style="fill:#f9c300" />
      </g>
      <g
         id="g4032"
         transform="matrix(1.25,0,0,-1.25,-311.416,371.961)">
        <path
           id="path4034"
           d="M 0,0 C 1.146,-1.952 3.233,-2.484 3.799,-4.019 4.766,-2.238 4.297,0.762 2.586,1.704 1.3,2.081 0.219,1.277 0,0 Z"
           inkscape:connector-curvature="0"
           style="fill:none;stroke:#000000;strokeWidth:0.75;stroke-linecap:round;stroke-linejoin:round" />
      </g>
      <g
         id="g4036"
         transform="matrix(1.25,0,0,-1.25,-458.596,237.551)">
        <path
           id="path4038"
           d="m 0,0 c 0.81,0.647 1.787,1.651 3.868,1.651 2.95,0 4.985,-2.88 5.502,-3.56"
           inkscape:connector-curvature="0"
           style="fill:none;stroke:#000000;strokeWidth:0.75;stroke-linecap:round;stroke-linejoin:round" />
      </g>
      <g
         id="g4040"
         transform="matrix(1.25,0,0,-1.25,-339.516,357.491)">
        <path
           id="path4042"
           d="M 0,0 C -1.855,0 -3.417,-0.146 -4.667,-0.146"
           inkscape:connector-curvature="0"
           style="fill:none;stroke:#000000;strokeWidth:0.75;stroke-linecap:round;stroke-linejoin:round" />
      </g>
      <g
         id="g4044"
         transform="matrix(1.25,0,0,-1.25,-356.286,364.391)">
        <path
           id="path4046"
           d="M 0,0 C 0.375,-0.75 0.834,-2.042 0.417,-2.875"
           inkscape:connector-curvature="0"
           style="fill:none;stroke:#000000;strokeWidth:0.75;stroke-linecap:round;stroke-linejoin:round" />
      </g>
    </g>
  </g>
</svg>
