<?xml version="1.0" encoding="UTF-8" standalone="no"?>
<!-- Created with Inkscape (http://www.inkscape.org/) -->

<svg
   xmlns:dc="http://purl.org/dc/elements/1.1/"
   xmlns:cc="http://creativecommons.org/ns#"
   xmlns:rdf="http://www.w3.org/1999/02/22-rdf-syntax-ns#"
   xmlns:svg="http://www.w3.org/2000/svg"
   xmlns="http://www.w3.org/2000/svg"
   xmlns:sodipodi="http://sodipodi.sourceforge.net/DTD/sodipodi-0.dtd"
   xmlns:inkscape="http://www.inkscape.org/namespaces/inkscape"
   width="545.30304"
   height="800"
   id="svg2"
   version="1.1"
   inkscape:version="0.48.4 r9939"
   sodipodi:docname="Викинг.svg">
  <defs
     id="defs4" />
  <sodipodi:namedview
     id="base"
     pagecolor="#ffffff"
     bordercolor="#666666"
     borderopacity="1.0"
     inkscape:pageopacity="0.0"
     inkscape:pageshadow="2"
     inkscape:zoom="0.175"
     inkscape:cx="1563.473"
     inkscape:cy="510.30105"
     inkscape:document-units="px"
     inkscape:current-layer="layer1"
     showgrid="false"
     inkscape:snap-global="false"
     inkscape:window-width="1920"
     inkscape:window-height="1018"
     inkscape:window-x="-8"
     inkscape:window-y="-8"
     inkscape:window-maximized="1"
     fit-margin-top="0"
     fit-margin-left="0"
     fit-margin-right="0"
     fit-margin-bottom="0" />
  <metadata
     id="metadata7">
    <rdf:RDF>
      <cc:Work
         rdf:about="">
        <dc:format>image/svg+xml</dc:format>
        <dc:type
           rdf:resource="http://purl.org/dc/dcmitype/StillImage" />
        <dc:title></dc:title>
      </cc:Work>
    </rdf:RDF>
  </metadata>
  <g
     inkscape:label="Layer 1"
     inkscape:groupmode="layer"
     id="layer1"
     transform="translate(272.96651,-855.9375)">
    <path
       style="fill:#000000;stroke:none"
       d="m 109.79135,855.9375 -294.69336,100.36699 -1.27259,-44.40662 -5.35826,-3.31542 -21.43306,6.8876 0.25675,5.87176 c 4.5928,9.88261 9.18241,21.74787 13.77521,41.08003 l -9.94628,2.29959 c -4.75989,-8.08372 -10.00812,-9.15074 -14.54546,0.25675 -6.36749,-0.42455 -6.4331,-2.18536 -10.97328,1.52933 -6.15736,-2.17748 -5.3007,-0.4703 -10.45977,3.82893 -5.69703,-0.0129 -6.90089,0.25887 -10.97328,4.33126 l 0.25675,11.48678 c 5.55805,0.6069 5.19288,0.18468 9.68953,-2.81309 l 1.78608,-11.47561 2.04284,-1.27259 -1.52934,11.47562 c 0.47379,6.20213 6.86915,5.01202 7.91461,-0.5135 l 0.50233,-12.24587 1.54051,-0.25675 -1.02701,12.75937 c 5.74079,6.55787 5.46758,9.31109 9.44395,1.027 l -0.25675,-12.75937 1.52933,0.25675 0.5135,11.21887 c 4.76842,5.52228 4.20518,4.18011 8.67369,-1.01584 l -1.27258,-10.97328 5.10151,-1.52934 14.54545,0.77025 9.68953,24.74848 c 0,0 -10.46137,-21.6914 -12.50261,-21.94655 -2.04125,-0.25516 -14.28871,-0.77025 -14.28871,-0.77025 l 0.77025,7.9146 7.4011,1.27259 4.07452,8.67369 -19.89256,15.57244 -0.77025,14.7911 -2.04284,-13.5185 -19.39022,0.2568 -6.63085,3.5721 4.33127,-5.615 18.63113,-0.7702 19.90372,-15.04783 -1.027,-5.61501 -5.10152,-1.01584 c -4.26503,5.5333 -3.97828,8.01302 -9.44394,3.57217 -5.17416,8.21694 -5.16328,7.55709 -12.24587,1.78609 -5.42954,6.48075 -5.22581,7.02005 -10.97327,1.27259 -6.83019,1.42402 -5.80133,2.48027 -11.21887,-0.77025 l -2.29959,2.55634 c -1.86553,-2.14393 -7.12269,-1.39829 -8.79648,0.16744 -8.29263,7.75728 -5.72911,22.3469 7.42343,24.7373 2.9658,0.5391 6.16139,-1.4318 10.04674,-2.9582 l 6.63085,10.7165 -1.90888,11.4533 c 14.52433,2.9123 29.1853,4.0499 44.38429,-1.8084 l 1.98702,-9.7453 c 5.00422,-6.2587 9.50314,-12.7556 13.52962,-19.6582 -0.64273,14.9976 0.24425,26.9353 0.90421,39.3275 13.23644,-0.9276 22.3071,-5.3364 31.58027,-9.5668 -9.78045,-15.3063 -21.32711,-31.2429 -22.01354,-43.30144 C -77.156863,949.87005 26.753432,920.1662 130.5323,890.21923 L 159.39995,858.2929 z M -0.65586483,937.14869 c -2.78442557,-0.0407 -5.34216437,0.14847 -7.54622197,0.40187 -28.3583092,3.26029 -40.0204352,23.39866 -43.4912442,50.27838 l 88.054141,-9.74534 0.714435,3.24844 -32.4733131,4.69965 c 1.8564384,28.20951 14.7377591,49.39661 31.0332801,71.44351 l 5.402916,-0.6474 4.97872,-2.2885 -1.529337,-16.3315 3.192632,-5.9946 -0.647457,-16.4655 8.294146,-2.1656 0.893044,-2.5563 C 53.013302,995.69165 48.220374,989.9251 44.107967,980.02597 36.016592,944.00505 14.380024,937.36847 -0.65586483,937.14869 z M 173.07469,977.99429 c -0.40471,-0.003 -0.81222,7.2e-4 -1.21678,0.0112 -29.34379,0.77021 -58.17208,37.59631 -68.56345,99.13911 -14.076389,-2.2253 -21.088349,-4.4503 -27.606224,-6.6755 -10.592091,-0.4454 -21.156406,-1.0708 -31.747715,-0.1899 -9.321811,2.8267 -18.45678,6.411 -27.974604,8.4839 -10.1469948,2.21 -20.4934456,3.4819 -30.843508,4.3313 -9.4721,0.7773 -19.043267,1.3712 -28.51043,0.5359 -7.018441,-0.6194 -13.71746,-3.2434 -20.573502,-4.8671 6.735759,0.7217 13.444817,1.9694 20.216284,2.1657 9.861867,0.2858 19.777103,0.37 29.582083,-0.7256 11.2533516,-1.2576 22.3392608,-3.7821 33.377521,-6.3072 7.384588,-1.6892 14.5579,-4.2133 21.834926,-6.3182 l -2.89123,-4.8671 -15.326868,-0.1898 -10.292332,-2.8801 -10.8169961,-10.8281 c 0,0 11.1856581,6.3146 12.2681921,6.6755 1.08253,0.3608 17.135282,5.2355 17.135282,5.2355 l 1.987023,-1.9871 C 11.50733,1036.874 5.0051198,1013.7493 -0.71168008,987.28195 -18.181882,990.61158 -34.782453,992.03209 -52.407766,992.70719 l 0,9.92391 -6.675504,30.3077 -9.388125,22.1922 -10.638387,16.4208 -4.509873,5.2243 -5.961069,2.8913 c 25.216559,11.1278 53.457769,14.9773 82.6400618,10.6383 0,0 -1.0828158,3.978 -1.0828158,4.6997 -42.421327,7.5656 -61.337471,-2.1852 -84.258704,-11.5538 l -9.019748,1.9871 c -4.72803,-0.9843 -4.72115,-0.094 -8.84113,2.3442 -8.61232,-1.2163 -12.61189,0.9373 -20.75211,3.6057 -12.07715,5.1851 -24.80451,11.3456 -33.19891,11.0067 l 22.37075,51.4282 3.06984,37.1618 44.562894,-8.6625 c 9.146632,-19.7375 8.049513,-37.4724 4.152655,-59.5326 -14.310489,-7.8279 -27.722359,-14.9623 -40.410239,-25.4406 l 3.96288,-2.5228 c 14.11554,11.0328 26.30668,19.3751 43.122863,26.702 45.943443,15.3493 90.6753892,14.1072 122.503314,-8.8411 7.92787,-11.011 15.663274,-22.1343 24.904765,-32.1161 l 2.52285,1.7972 c -9.26231,10.9464 -14.96699,18.6005 -25.261983,34.639 -32.0308496,21.3956 -86.064443,24.788 -127.370404,7.948 2.400373,20.0032 7.37924,39.6726 -4.699644,57.7353 8.685853,25.6005 17.157276,51.245 27.784832,76.132 l 16.242238,4.3313 49.7983674,11.911 40.0530246,9.0197 29.224866,0.3572 c 11.21949,-41.6206 24.547633,-85.0791 9.745342,-126.6559 -10.112337,-28.4036 -15.521569,-46.2403 -10.828158,-74.3348 l 3.605665,-0.3572 c -2.994938,20.0048 0.670883,43.834 11.910975,71.4435 l 11.553757,-2.5228 c -0.963652,-21.7785 -2.650023,-43.5376 -0.725599,-65.315 l 4.688479,0.7256 c -3.461704,38.7441 -0.91806,83.1011 12.63658,133.1528 21.90022,80.8686 93.86807,90.3547 117.99344,-3.6168 13.03297,-50.7651 16.36306,-100.9173 5.41406,-149.0267 -14.16375,-62.2355 -39.86313,-89.74448 -65.35964,-89.94071 z m 12.06727,23.55401 c 29.87211,0 54.08496,55.9334 54.08496,124.9369 0,69.0035 -24.21285,124.948 -54.08496,124.948 -29.87225,0 -54.08499,-55.9445 -54.08499,-124.948 0,-69.0035 24.21274,-124.9369 54.08499,-124.9369 z m 1.0828,3.9629 c -27.68454,0 -50.13326,53.3573 -50.13326,119.1767 0,65.8195 22.44872,119.1768 50.13326,119.1768 16.93194,0 31.90571,-19.9623 40.97958,-50.524 l -2.26612,-2.1768 -15.29338,-14.6459 -10.40396,55.4692 -2.45587,0 -9.61141,-51.8636 -24.27961,29.3365 -2.18796,-1.0381 7.93693,-40.0419 -16.94551,3.2708 -2.46704,0.4688 1.11631,-2.2549 15.04779,-30.4305 -21.14282,-14.9026 -1.70795,-1.2057 1.8754,-0.9377 27.22668,-13.5742 -12.36866,-44.8755 -0.91537,-3.3377 2.84657,1.987 27.56158,19.2228 5.83829,-40.388 2.45587,-0.1227 10.31466,42.6205 12.85983,-12.5473 2.09866,-2.0428 0.0221,2.9247 0.35722,47.6997 12.0896,8.2941 1.22794,0.8373 -1.03818,1.0716 -13.6524,13.9985 5.69316,45.9583 0.33489,2.6456 c 5.65843,-19.2994 8.97509,-42.7616 8.97509,-68.0723 0,-65.8194 -22.43755,-119.1767 -50.12209,-119.1767 z m -431.85376,33.1989 0,6.3853 c 14.31689,1.1342 27.20547,4.2633 44.6522,1.0158 l 1.28375,-6.6308 c -4.16754,0.3402 -8.34826,0.541 -12.50262,1.0158 -4.78014,0.5463 -9.4843,2.2996 -14.2887,2.0428 -6.49595,-0.3471 -12.76575,-2.5531 -19.14463,-3.8289 z m 2.69029,8.2942 c -0.11577,1.861 0.20093,3.4055 -2.52285,7.2225 -3.51353,-1.1712 6.85384,115.4671 13.35101,119.0762 l 45.10989,-63.0601 -1.4512,-2.9693 -44.01591,29.2248 -1.80841,-2.8912 44.7415,-30.3077 -10.45977,-53.0468 c -20.06941,1.7954 -30.63913,-1.1617 -42.94426,-3.2484 z m 439.09859,1.1944 -4.82244,33.3664 c 1.64577,-0.6028 3.34216,-0.9309 5.06802,-0.96 0.22751,0 0.45242,-0.01 0.68093,0 2.60147,0.076 5.09678,0.8265 7.43463,2.1656 z m -33.55613,18.4079 10.53792,38.2669 c 3.23049,-9.6185 8.18342,-17.1498 14.02079,-21.1316 z m 57.27762,8.5955 -11.0961,10.8282 c 5.0702,4.8972 9.07432,12.7967 11.34166,22.4042 z m -22.66102,9.243 c -12.68009,0.2231 -23.39576,19.5112 -24.07868,43.5918 -0.69376,24.4627 9.22732,44.6064 22.16981,44.9982 12.9425,0.3918 23.99892,-19.1178 24.69267,-43.5805 0.69375,-24.4628 -9.23858,-44.6177 -22.18096,-45.0095 -0.20233,-0.01 -0.40148,0 -0.60284,0 z m -362.21864,21.3773 -13.70823,5.0568 -16.95667,56.2953 c 17.99538,-1.1996 34.55053,-5.9858 50.5128,-12.2682 z m -15.51664,4.3312 -6.12852,1.0829 -41.86143,62.4349 29.95046,-5.4141 z m 351.70306,1.6857 -23.78846,11.8551 20.30559,14.3111 0.87072,0.6139 -0.46885,0.96 -14.40034,29.1356 16.2869,-3.1368 1.81957,-0.3461 -0.35722,1.8196 -7.33412,37.0055 22.82842,-27.5839 0.98235,-1.1833 c -11.40633,-5.512 -19.42061,-24.721 -18.75391,-47.3201 0.16739,-5.6739 0.86791,-11.1049 2.00935,-16.1306 z m 50.89235,10.7165 c 0.11388,2.2757 0.14781,4.5932 0.0782,6.9546 -0.11549,3.9128 -0.4905,7.7023 -1.08284,11.3305 l 11.09608,-11.364 z m -2.67913,26.0769 c -4.58143,16.9161 -14.27406,28.559 -25.15034,28.2425 -1.84531,-0.054 -3.63858,-0.4578 -5.35826,-1.161 l 0.24555,1.3284 8.88579,47.9007 9.58907,-51.1491 0.4242,-2.2661 1.66331,1.5963 14.42266,13.8087 z m -313.313337,39.1041 -27.416453,4.6885 -9.38812,20.5735 -11.5426,17.6823 -4.68848,10.1026 -5.41408,3.2484 -8.66253,19.1223 -9.74534,10.4598 -16.23107,24.5475 -6.86528,19.8368 -9.73418,19.8479 15.87386,4.3312 6.12851,6.1397 6.13968,1.0828 0.35722,-9.0197 3.97404,-3.2485 18.03949,-39.6958 3.97405,-5.0568 12.26819,-9.7342 10.10256,-11.911 20.56234,-41.493 13.351009,-23.822 2.534012,5.0569 -9.745341,18.7651 -20.93072,44.0159 -15.87386,15.1594 -2.89123,5.0457 -9.01974,5.7825 -9.01975,20.5623 -32.84169,68.1951 23.09635,8.3053 5.41408,-2.5229 4.33126,-0.3684 16.59946,-40.053 15.15942,-18.3967 3.96288,-16.5994 8.30531,-5.7713 5.40292,-10.471 6.49689,-5.7713 0,-6.4969 7.579715,-8.6625 10.828159,-28.4993 4.331264,-4.6996 4.331263,-8.2942 -7.948092,-23.0963 -2.522849,-1.7973 -2.165632,-10.8281 z m 23.464732,62.4238 -2.534013,4.6997 -6.854113,1.44 -11.185376,34.2817 -12.993793,14.4339 -3.60566,11.5425 -9.01975,5.4141 c -18.56167,32.6893 -33.04221,64.0116 -42.94425,93.8143 4.4683,4.6731 13.24624,5.04 23.45357,3.974 l 65.683385,-125.5731 -2.165632,-18.4079 3.962883,-21.6451 z m 8.294146,12.2682 -2.522849,8.6625 83.354496,28.5105 18.03949,2.88 -2.165632,-15.8738 z m -5.12384,10.7724 -1.015838,10.203 1.015838,11.4868 -7.389939,13.0161 -17.615294,32.1496 -17.604128,35.9785 -24.49173,55.3687 20.98653,-1.5405 26.344799,-0.3572 44.015907,-4.3313 77.940417,-15.1594 14.802205,23.4536 c 12.011021,15.3379 19.599387,31.7596 34.996163,43.6698 l 40.778619,2.5229 16.59946,3.2484 0.35722,-5.7713 -19.32324,-14.8915 -32.45099,13.8087 -4.588014,-1.5405 34.013814,-14.6124 -9.28766,-7.1555 -32.640757,15.1371 -2.556338,-3.0587 31.993305,-14.5455 -109.5541787,-84.4596 19.9037187,-32.9087 23.219145,16.8339 19.903718,-50.7696 -8.428103,2.5452 c 1.564292,14.6046 -12.607213,19.4727 -13.261703,4.0857 l -11.230029,0.2567 -15.058955,-3.8289 z m 139.002302,14.1324 c -10.840265,1.1522 -21.619163,1.445 -32.484476,1.0828 l 2.89123,16.9567 c 0.407049,2.3914 0.312433,6.2952 3.962883,6.4969 2.687041,0.1484 4.699644,-3.9733 4.699644,-12.2682 l 0,-2.8913 15.51664,-1.7972 -22.013535,56.6525 15.51664,9.7342 14.065443,-47.99 2.534012,2.1656 -12.99379,49.0728 57.009696,41.1358 c -4.07854,-18.0605 -11.4092,-38.5586 -22.683316,-58.6618 -11.558898,-20.6109 -18.456652,-34.7616 -26.389451,-50.3119 z m -51.606781,48.7155 -17.6822719,28.8677 9.2430059,7.3006 19.021837,-28.0751 z m 14.511965,11.0849 -20.260936,27.2156 29.436964,23.2414 19.245098,-28.7225 z m 30.977465,23.688 -18.55299,29.3477 13.362171,10.5491 19.245099,-29.1579 z m 16.811554,12.8487 -18.385544,29.9058 168.617888,133.1975 21.2991,-26.3336 1.79724,2.8801 -19.47951,25.6191 9.01975,5.7825 24.53635,-4.6996 -3.24843,-23.4536 -9.01975,-9.0198 z m -135.653388,49.5193 -81.400958,3.8178 -4.84477,6.642 -8.17135,10.203 c -5.72834,6.3789 -3.25088,12.7546 -1.78609,19.1335 l 10.21419,14.0319 17.86088,29.3477 5.8606,15.3045 22.460061,-45.9248 -34.449171,11.7436 -1.52934,-4.3424 43.122863,-12.2459 -1.786088,-5.1016 3.058676,-6.642 -4.085677,5.3583 -56.641314,-0.5023 -0.5135,-6.8876 51.550963,1.5293 6.374102,1.5293 4.588014,-5.8717 -16.32038,-6.1174 -39.293939,-8.6848 2.03168,-4.588 40.320935,8.4169 14.802204,8.4281 11.475616,-12.7594 10.973279,-8.1713 z m 140.073955,46.1815 c -4.31486,21.2555 -0.622566,45.5363 20.160467,76.2883 l 35.72176,-35.465 z m 9.443941,2.5452 49.496966,34.7059 -1.78609,-29.85 z m -179.881393,1.5293 -3.069838,0.7703 -6.117352,8.9305 -18.117631,37.251 29.849997,8.1714 23.989395,8.1602 -8.171353,23.7326 c 0,0 -11.732366,26.5378 -13.518454,30.6203 l 33.935673,-8.1714 c -4.811414,-15.7874 -9.928645,-30.6942 -11.743529,-47.1974 -4.953801,-23.6538 -12.598893,-45.388 -27.036908,-62.2675 z m 229.635109,39.8075 -36.99435,32.9198 60.72699,52.8124 c -12.99531,-30.0304 -20.25373,-58.4208 -23.73264,-85.7322 z m -260.25536,11.23 30.865839,68.1281 24.246145,-54.0961 z m 223.51776,27.0481 c 4.69373,15.3891 12.18877,29.8423 13.2617,46.4383 l 45.92479,8.4169 -48.72671,-2.0428 c 5.34151,10.8507 7.15991,24.2834 5.10151,40.5665 l 20.16047,-0.7591 46.43827,-29.6044 c -2.07922,-2.8908 -10.5939,-6.6223 -19.9037,-10.4598 -25.69716,-18.7568 -41.56804,-35.051 -62.25633,-52.5556 z m -144.929881,33.4222 -37.7646,10.7165 -9.18719,-0.7703 c 0,0 -4.59758,4.848 -6.128515,5.3583 -1.530931,0.5103 4.855927,1.7861 4.855927,1.7861 l -8.93044,7.9146 -9.957441,1.7861 22.716808,12.2458 22.705644,13.7752 23.219144,-0.5023 z m -72.213769,28.3206 -23.97824,5.8718 10.20303,6.8876 8.41694,7.4011 10.20303,7.4011 38.53485,-2.2996 z m 298.53345,2.2996 -40.06419,28.5774 31.64725,-0.2567 28.57741,-24.4918 z m -327.11086,3.8289 -19.90372,4.8448 10.71653,8.4169 7.14435,11.7435 24.50289,-1.786 6.37411,-0.7703 -14.28871,-10.203 z m 349.8165,1.0159 -3.05867,6.1285 -18.87674,15.818 4.8448,-0.5135 6.37409,2.0429 13.27288,-0.5136 16.33153,-20.9195 z m 22.20333,2.5563 -14.03197,19.647 8.93044,-1.7861 11.21888,1.0158 6.89873,-2.2996 23.7215,-0.5023 -6.11735,-7.1444 z m -395.23898,2.2884 -38.78043,8.1714 0.25675,3.0587 47.19737,9.4439 9.70069,-2.0428 z"
       id="path3209"
       inkscape:connector-curvature="0"
       sodipodi:nodetypes="ccccccccccccccccccccccccccccccscccccccccccccccccccssccccccccccccsscccccccccccccscccccssscssscccccscccccccccccccccccccccccccccccccccccsccccccssscssssssssccccccccccccccccccccccccccccccccccssccccsscccccccccccccsscccccccccccsssccccccccccccccccccccccccscccccccscccccccccccccccccccccccccccccccccccccccccccccccccccccccccccccccccccccccccccccccccccccccccccccccccccccccccccccccssccccccccsccccccccccccccccccccccccccccccccccccccccccccccccccccccccccccccccccccccccccccccccccccccccccccccccccccccccccccccccccccccccccccccccccccccccccccccccc" />
  </g>
</svg>
